<?xml version="1.0" encoding="UTF-8"?><!DOCTYPE svg PUBLIC "-//W3C//DTD SVG 1.1//EN" "http://www.w3.org/Graphics/SVG/1.1/DTD/svg11.dtd"><svg xmlns="http://www.w3.org/2000/svg"><symbol id="lamborghini-logo" viewBox="0 0 231 263"><title>Lamborghini</title><g fill="none" fill-rule="evenodd"><path d="M108.691 261.015c-3.73-2.08-14.384-10.214-22.845-17.442-14.044-11.996-26.359-25.208-37.377-40.098C24.757 171.429 10.094 134.149 3.683 89.61.623 68.36-.563 38.676 1.382 32.052c1.23-4.193 4.032-8.098 7.574-10.558 3.828-2.66 16.057-7.449 27.025-10.585 23.243-6.644 48.916-9.828 79.38-9.843 38.835-.019 70.62 5.128 97.435 15.779 9.573 3.802 13.115 6.528 15.88 12.222l1.816 3.741-.043 16.366c-.12 45.482-10.45 89.695-29.292 125.358-4.802 9.09-16.154 26.672-21.771 33.718-10.393 13.038-22.409 25.549-34.332 35.746-8.05 6.885-19.964 15.86-23.267 17.53-4.06 2.05-8.838 1.864-13.096-.51z" fill="#FFF"/><path d="M108.691 261.015c-3.73-2.08-14.384-10.214-22.845-17.442-14.044-11.996-26.359-25.208-37.377-40.098C24.757 171.429 10.094 134.149 3.683 89.61.623 68.36-.563 38.676 1.382 32.052c1.23-4.193 4.032-8.098 7.574-10.558 3.828-2.66 16.057-7.449 27.025-10.585 23.243-6.644 48.916-9.828 79.38-9.843 38.835-.019 70.62 5.128 97.435 15.779 9.573 3.802 13.115 6.528 15.88 12.222l1.816 3.741-.043 16.366c-.12 45.482-10.45 89.695-29.292 125.358-4.802 9.09-16.154 26.672-21.771 33.718-10.393 13.038-22.409 25.549-34.332 35.746-8.05 6.885-19.964 15.86-23.267 17.53-4.06 2.05-8.838 1.864-13.096-.51zm8.058-1.169c-.623-.164-1.642-.164-2.265 0-.623.165-.114.3 1.132.3s1.756-.135 1.133-.3zm-25.726-16.162c0-.136-.51-.651-1.132-1.145-1.027-.815-1.05-.791-.245.247.846 1.09 1.377 1.437 1.377.898zm-3.883-3.239c0-.117-.8-.927-1.78-1.8l-1.78-1.587 1.57 1.8c1.466 1.683 1.99 2.1 1.99 1.587zm-9.06-8.624c-2.294-2.34-4.316-4.256-4.493-4.256-.178 0 1.552 1.915 3.845 4.256 2.293 2.34 4.315 4.255 4.493 4.255.178 0-1.552-1.915-3.846-4.255zM68.371 222c-2.293-2.34-4.315-4.255-4.493-4.255-.178 0 1.552 1.914 3.845 4.255 2.294 2.34 4.315 4.255 4.493 4.255.178 0-1.552-1.915-3.845-4.255zm-5.825-6.433c0-.117-.8-.927-1.78-1.8l-1.78-1.587 1.57 1.8c1.466 1.683 1.99 2.1 1.99 1.587zm-3.883-4.595c0-.124-.655-.787-1.456-1.473l-1.456-1.247 1.232 1.473c1.159 1.384 1.68 1.771 1.68 1.247zm-2.589-3.273c0-.124-.655-.787-1.456-1.473l-1.456-1.247 1.233 1.473c1.158 1.384 1.68 1.771 1.68 1.247zm-2.589-3.294c0-.136-.51-.652-1.132-1.146-1.027-.814-1.05-.791-.245.247.846 1.09 1.377 1.437 1.377.899zm-1.941-2.619c0-.136-.51-.651-1.133-1.146-1.026-.814-1.05-.79-.244.248.845 1.09 1.377 1.437 1.377.898zm-1.942-2.619c0-.136-.51-.651-1.132-1.145-1.027-.815-1.05-.791-.245.247.846 1.09 1.377 1.437 1.377.898zm-9.06-13.5c-.381-.72-.839-1.31-1.017-1.31-.178 0-.011.59.37 1.31.38.72.838 1.31 1.016 1.31.178 0 .012-.59-.37-1.31zm-1.942-3.273c-.38-.72-.838-1.31-1.016-1.31-.178 0-.012.59.369 1.31.38.72.838 1.31 1.016 1.31.178 0 .012-.59-.369-1.31zm-1.941-3.273c-.381-.72-.839-1.31-1.017-1.31-.178 0-.012.59.37 1.31.38.72.838 1.309 1.016 1.309.178 0 .012-.59-.37-1.31zm-5.963-11.43c-1.852-3.766-3.47-6.743-3.596-6.615-.287.29 6.219 13.462 6.648 13.462.173 0-1.2-3.081-3.052-6.847zm-5.608-11.925c-.763-1.327-.947-.902-.322.744.222.585.54.926.706.757.167-.168-.006-.844-.384-1.5zM87.261 42.508c-.467-.189-1.025-.166-1.24.052-.215.217.167.372.85.344.753-.032.907-.187.39-.396zM5.841 30.156c.222-.583.113-.846-.254-.616-.352.22-.64.677-.64 1.016 0 .941.464.734.895-.4zm220.444.434c0-.32-.604-1.278-1.342-2.128l-1.341-1.545 1.157 2.127c1.2 2.206 1.526 2.536 1.526 1.546zM73.023 20.905c-.467-.19-1.025-.166-1.24.052-.215.217.167.372.85.343.753-.031.907-.186.39-.395zm28.031-.862c.645-.72 1.026-1.31.848-1.31-.178 0-.85.59-1.495 1.31-.644.72-1.025 1.31-.847 1.31.177 0 .85-.59 1.494-1.31zm-16.381-.447c-.468-.19-1.026-.166-1.24.051-.216.218.166.373.849.344.754-.031.907-.186.39-.395zm77.662-12.439c-.467-.189-1.026-.166-1.24.052-.216.218.167.372.849.344.754-.032.907-.187.39-.396zm-5.178-.654c-.467-.19-1.025-.166-1.24.051-.215.218.167.373.85.344.753-.031.907-.186.39-.395zm-5.137-.641c-.445-.182-1.173-.182-1.618 0-.445.181-.08.33.81.33s1.253-.149.808-.33zM87.91 5.193c-.468-.189-1.026-.165-1.24.052-.216.218.166.372.849.344.753-.032.907-.187.39-.396zm56.656-.006c-.63-.166-1.503-.155-1.941.024-.438.18.077.315 1.145.302 1.068-.013 1.426-.16.796-.326zm-44.331-.676c-1.163-.145-2.91-.142-3.883.007-.973.15-.021.269 2.115.265 2.135-.004 2.931-.126 1.768-.272zm34.3 0c-1.162-.145-2.91-.142-3.882.007-.973.15-.021.269 2.115.265 2.135-.004 2.931-.126 1.768-.272z" fill="#F7DE9F"/><path d="M109.534 261.273c-11.588-6.155-38.658-30.513-52.738-47.455C20.964 170.702 3.086 118.606.66 50.234.058 33.292 1.17 28.902 7.53 23.117c8.126-7.39 40.126-16.58 68.607-19.703 52.892-5.8 103.667-.355 139.934 15.007 10.136 4.294 14.07 10.01 14.602 21.223.35 7.356-.799 29.346-2.15 41.162-8.323 72.78-38.426 127.87-93.449 171.015-11.533 9.043-14.278 10.646-18.694 10.913-2.973.18-4.284-.1-6.847-1.46zm14.942-4.888c20.93-14.365 42.5-35.628 58.11-57.286 20.657-28.662 34.278-62.637 41.076-102.463 3.987-23.354 5.677-57.021 3.27-65.137-1.417-4.78-5.782-8.202-15.278-11.982-27.666-11.011-65.521-16.686-104.128-15.61-35.11.978-63.465 6.009-87.787 15.574-6.953 2.735-8.718 3.733-11.742 6.637-3.485 3.346-3.575 3.526-4.37 8.684-.937 6.082-.067 29.55 1.662 44.813 8.393 74.12 39.066 129.393 95.81 172.652 8.897 6.783 11.167 8.03 14.605 8.03 2.684 0 3.788-.492 8.772-3.912zm-15.344.536c-3.015-1.855-11.518-8.375-18.109-13.887-35.225-29.456-59.501-65.31-73.447-108.471C12.212 117.96 8.175 98.44 5.932 78.267 4.847 68.502 3.568 40.504 4.065 37.39c.79-4.942.816-4.992 2.262-4.21 2.056 1.114 2.974-.204 1.61-2.31-.84-1.296-.928-1.977-.386-3 3.543-6.696 35.968-16.94 65.027-20.543 14.04-1.74 25.065-2.339 43.106-2.34 34.852-.004 61.142 3.675 86.331 12.081 11.385 3.8 18.248 6.837 20.086 8.891 1.145 1.28 1.148 1.42.064 3.276-1.417 2.426-.942 3.245 1.88 3.245 2.347 0 2.302-.073 3.165 5.14.532 3.214-.775 31.728-1.926 41.994-5.3 47.316-20.162 87.627-44.575 120.904-14.383 19.607-36.479 41.253-55.963 54.825l-4.636 3.229-1.04-1.503c-.885-1.277-1.439-1.45-3.681-1.145-1.452.197-2.962.804-3.356 1.349-.63.872-.979.83-2.901-.353zm-13.948-81.447c1.138-1.152 1.361-2.899.37-2.899a.647.647 0 0 0-.648.642c0 .353-.728.827-1.618 1.053-1.62.412-1.995.979-1.186 1.797.727.735 2.013.488 3.082-.593zm-17.105-8.502c0-.159-.29-.289-.647-.289-.356 0-.647.312-.647.694 0 .38.291.51.647.288.356-.222.647-.534.647-.693zm45.227-5.551c-1.087-1.787-2.08-3.248-2.206-3.248-.126 0 .554 1.575 1.512 3.5s1.95 3.386 2.205 3.248c.255-.139-.425-1.714-1.511-3.5zm10.754-11.103c.23-.376-.224-.584-1.07-.49-1.16.128-1.56-.251-1.903-1.802-.403-1.833-.438-1.852-.509-.295-.116 2.526 2.385 4.384 3.482 2.587zm-14.622-10.062c2.912-.556 3.944-1.51 3.944-3.641 0-1.915-1.883-5.141-1.92-3.291-.012.555-1.307 2.286-2.88 3.847-1.571 1.56-3.007 3.416-3.19 4.124-.298 1.153-.22 1.188.755.335.598-.524 2.079-1.142 3.29-1.374zm20.755-1.052c-4.287-.56-5.774-1.299-8.004-3.98-2.775-3.335-2.01-7.17 1.761-8.829l2.053-.903-2.305-.026c-6.787-.075-6.896 9.407-.15 13.009 1.72.918 3.616 1.293 6.338 1.253l3.883-.057-3.576-.467zm18.086-6.235c-.028-.72-.198-.941-.377-.49-.18.45-.885.817-1.567.817-.682 0-1.24.221-1.24.491s.728.491 1.617.491c1.204 0 1.605-.335 1.567-1.309zm-68.9-3.794c1.082-1.676 2.649-3.24 3.481-3.477 1.77-.501 6.14.77 8.674 2.523 2.545 1.762 5.844 2.184 6.91.884.473-.575 1.624-1.055 2.56-1.067 1.634-.02 1.651-.058.444-.982-.78-.596-2.745-.964-5.178-.97-4.76-.012-6.838-.981-8.16-3.806l-1.002-2.143-1.227 1.371c-1.74 1.944-3.796 1.468-4.218-.977l-.34-1.964-2 2.946c-2.835 4.173-4.125 6.893-4.125 8.696 0 3.46 1.522 3.083 4.18-1.034zm39.02-7.624c.661-.157-.078-4.492-1.119-6.555-.975-1.934-1.783-2.638-3.397-2.961-6.367-1.273-7.94-3.22-7.353-9.096.446-4.475.402-4.58-3.061-7.192-1.36-1.025-2.79-2.57-3.178-3.433-.926-2.055-1.859-1.982-6.309.493-5.22 2.902-5.701 3.909-3.328 6.957 1.054 1.353 2.094 3.674 2.339 5.219.246 1.554.798 2.782 1.25 2.782 1.195 0 2.313 2.947 2.313 6.098 0 2.329.446 3.279 2.843 6.05l2.844 3.29 7.997-.807c4.398-.444 8.07-.824 8.158-.845zm14.04-4.979c-.877-2.357-2.477-7.734-3.555-11.947-1.14-4.452-3.196-10.198-4.91-13.717-2.797-5.745-3.609-6.767-4.378-5.508-.427.698 2.967 9.16 5.41 13.488 1.028 1.822 2.638 6.406 3.577 10.187.983 3.957 2.414 7.915 3.373 9.328.916 1.35 1.758 2.455 1.872 2.455.113 0-.511-1.929-1.389-4.286zm-15.335-33.895c-3.355-2.779-1.65-4.821 2.447-2.933 1.308.603 1.632 1.143 1.406 2.341-.19 1.006-.073 1.333.333.923 1.161-1.175.199-3.057-2.16-4.223-4.24-2.098-6.416.371-3.094 3.51 1.108 1.047 2.201 1.892 2.43 1.88.23-.014-.383-.687-1.362-1.498zm27.053-4.022c.515-1.25.936-2.943.935-3.765-.003-2.001-2.164-5.48-4.008-6.45l-1.49-.786 1.375 1.562c3.013 3.422 3.573 6.394 1.844 9.777-.612 1.198-.723 1.932-.29 1.932.382 0 1.118-1.022 1.634-2.27zM106.676 63.23c-2.867-1.768-2.665-4.218.527-6.392 1.815-1.236 2.94-1.5 5.664-1.33 2.316.144 3.398-.036 3.397-.568 0-.43 1.383-1.224 3.073-1.767l3.075-.986-3.884.344c-5.945.526-10.166 1.947-12.914 4.35-2.11 1.845-2.43 2.457-2.064 3.932.238.961 1.23 2.185 2.205 2.72 2.655 1.457 3.386 1.217.92-.303zM21.682 47.047c-.215-12.857-.208-12.933 1.232-13.576 2.154-.96 1.754-1.684-.493-.892l-1.941.685V46.62c0 9.248.218 13.356.71 13.356.497 0 .644-3.857.492-12.93zm106.77 12.355c.67-.43.594-.625-.342-.873-.663-.175-1.573.079-2.022.564-.664.72-.6.881.343.873.637-.005 1.547-.26 2.022-.564zm80.21-26.204c.993.38 1.483.402 1.12.052-.356-.342-1.303-.822-2.104-1.067l-1.456-.445.148 13.628.147 13.628.19-13.235.189-13.235 1.766.674zM33.1 52.614c.424-.42.089-.475-.97-.161-2.531.75-5.825 2.186-5.825 2.54 0 .48 6.046-1.637 6.795-2.379zm6.209-12.536c2.754-12.058 2.874-12.39 4.78-13.23l1.955-.862-1.7-.026c-.936-.014-1.993.343-2.35.793-.643.813-6.666 25.957-6.588 27.504.087 1.712 1.18-2.258 3.903-14.179zm157.284 11.6c-.763-1.327-.947-.902-.322.744.222.585.54.926.706.758.167-.169-.006-.844-.384-1.502zm-8.821-24.93c.871.169 1.43.055 1.242-.253-.188-.308-1.053-.56-1.922-.56h-1.58l.147 13.256.148 13.257.19-13.003.19-13.003 1.585.306zM47.949 48.556c-.243-1.314-.588-2.241-.766-2.061-.178.18-.124 1.402.12 2.716.243 1.314.588 2.241.766 2.061.178-.18.124-1.402-.12-2.716zm8.328-11.588c.121-12.599.13-12.671 1.578-12.88.8-.114 1.456-.517 1.456-.894 0-.391-.625-.516-1.456-.29-.801.216-1.675.398-1.942.403-.267.005-.485 6.097-.485 13.538s.164 13.364.364 13.162c.2-.203.418-6.07.485-13.039zm122.615-12.53c1.627-.25 1.6-.279-.337-.37l-2.103-.097.147 13.256.147 13.257.19-12.887.19-12.887 1.766-.272zM63.256 42.651c-.91-2.667-1.756-4.746-1.88-4.62-.125.125.444 2.595 1.264 5.488.82 2.892 1.666 4.972 1.88 4.62.215-.35-.354-2.82-1.264-5.488zm104.61-2.805c-.133-1.71-.242-.311-.242 3.11 0 3.42.11 4.82.243 3.109.133-1.71.133-4.509 0-6.22zm-96.906.709c0-3.84-.106-6.86-.237-6.71-.555.639-.887 13.693-.349 13.693.323 0 .586-3.142.586-6.983zm9.061-7.09V20.777l2.902-.44c1.597-.243 3.926-.32 5.177-.172 1.251.147 2.029.02 1.729-.284-.3-.304-2.849-.466-5.663-.36l-5.116.193-.175 13.631c-.117 9.147.042 13.495.486 13.218.412-.258.66-5.178.66-13.1zm78.161-12.178l1.766-.065-1.618-.487c-.89-.267-1.836-.368-2.103-.223-.267.144-.42 6.21-.338 13.48l.147 13.219.19-12.93.19-12.929 1.766-.065zm41.426 8.81c1.72.358 1.716.346-.181-.527l-1.942-.893-.323 7.958c-.178 4.376-.178 8.399 0 8.939.177.54.405-2.804.505-7.43l.181-8.413 1.76.366zm-99.117 12.84c-2-2.404-2.656-5.34-2.59-11.58.056-5.353 1.571-10.152 3.675-11.643.761-.54 2.557-.99 3.991-1 2.151-.017 2.4-.142 1.427-.714-1.621-.954-4.294-.165-6.44 1.9-4.561 4.388-5.022 18.706-.752 23.367 2.132 2.327 2.68 2.064.689-.33zm22.847-24.106c2.808.129 4.767.017 4.355-.249-.413-.266-2.863-.488-5.443-.493l-4.692-.01.147 13.584.148 13.584.19-13.326.19-13.325 5.105.235zm4.251 22.16c-.606-1.847-1.248-3.21-1.426-3.03-.178.18.172 1.838.779 3.685.606 1.847 1.248 3.21 1.426 3.03.178-.18-.172-1.838-.779-3.685zm-38.457.936c1.532-1.402 1.664-5.392.237-7.193-.972-1.228-.983-1.222-.323.159 1.695 3.549.066 7.399-3.139 7.418-.924.005-2.116.323-2.65.707-.725.52-.263.614 1.83.372 1.54-.178 3.36-.836 4.045-1.463zm48.715-.445c-1.454-2.808-1.953-11.975-.866-15.901 1.11-4.013 3.917-6.389 7.174-6.075 1.33.129 2.279.007 2.11-.27-.17-.276-1.478-.503-2.908-.503-3.198 0-5.917 2.448-6.966 6.271-1.168 4.254-.869 12.63.565 15.824.687 1.53 1.416 2.782 1.62 2.782.205 0-.123-.957-.73-2.128zm-92.242.904c.704-.451.678-1.119-.149-3.754l-1.005-3.205.366 2.985c.327 2.665.204 3.063-1.145 3.72-1.373.667-1.393.738-.217.769.712.019 1.68-.213 2.15-.515zm101.7-.697c.369-.696.666-1.654.66-2.128-.005-.473-.384-.124-.842.776-.674 1.322-1.29 1.622-3.21 1.563-1.306-.04-2.22.181-2.03.491.693 1.136 4.726.614 5.422-.702zm-38.647-2.007c.81-1.642 1.131-3.868 1.131-7.856 0-6.996-1.256-10.047-4.26-10.344-1.186-.117-2.321.2-2.797.78-.702.855-.548.88 1.244.197 1.845-.703 2.163-.632 3.248.722 2.345 2.928 2.535 13.474.304 16.918-.847 1.307-1.497 1.618-2.937 1.404-1.018-.151-1.693-.017-1.5.298.193.316 1.27.483 2.393.373 1.595-.157 2.29-.703 3.174-2.492zm-37.92-17.681c.3-.287 1.128-.664 1.84-.837.871-.212.634-.34-.725-.39l-2.02-.077-2.028 7.038c-1.116 3.87-2.011 7.48-1.99 8.02.023.54 1.016-2.217 2.209-6.126 1.192-3.908 2.413-7.341 2.714-7.628zm77.44 10.961l3.357-.239-3.721-.12c-3.677-.12-3.72-.1-3.634 1.678.074 1.494.136 1.555.365.36.234-1.222.783-1.476 3.633-1.679zm-55.51.217c-.235-.384-.737-.698-1.115-.698-.43 0-.38.376.13.998.888 1.082 1.681.84.985-.3zm75.37-5.351v-5.309l1.78.419c1.32.31 1.53.246.809-.247-.534-.365-1.48-.669-2.103-.674-.986-.009-1.133.672-1.133 5.233v5.242l-3.398-.257c-2.645-.2-2.895-.15-1.132.229 5.33 1.144 5.177 1.28 5.177-4.636zm-79.567 2.136c1.842-1.509 1.983-4.93.268-6.516-1.104-1.021-1.136-1.022-.387-.011 1.055 1.423.691 5.164-.565 5.814-.534.276-1.99.79-3.236 1.144l-2.265.643 2.355.067c1.409.04 2.948-.419 3.83-1.14zm39.442-.756c1.548-1.566 1.69-4.743.277-6.173-1.47-1.487-1.807-1.262-.638.427 2.25 3.25.835 5.69-3.74 6.446l-2.695.445 2.75.082c1.966.059 3.121-.292 4.046-1.227zm19.16-4.405c-.216-.218-.369.169-.34.859.03.762.184.918.39.395.187-.472.164-1.037-.05-1.254z" fill="#F9CE5C"/><path d="M110.11 261.414c-7.784-3.756-28.158-20.794-41.745-34.91C31.29 187.983 10.603 142.42 3.01 82.56 2.002 74.607.43 50.673.423 43.188c-.01-12.134 3.813-19.536 12.16-23.542 8.939-4.29 26.869-9.874 40.58-12.638C77.115 2.18 110.646.04 136.003 1.722c28.409 1.885 49.792 5.85 70.393 13.053 14.719 5.146 19.131 8.117 22.405 15.087 1.678 3.573 1.69 3.712 1.57 18.003-.491 58.72-15.845 110.517-44.973 151.72-13.689 19.362-33.09 39.13-53.991 55.01-11.168 8.486-15.18 9.77-21.297 6.819zm14.078-4.599c15.255-10.3 39.268-32.753 51.238-47.907 12.838-16.253 26.49-39.71 33.34-57.282 10.53-27.013 16.435-54.662 18.805-88.05.791-11.15.826-26.617.067-29.92-.38-1.66-.329-2.502.164-2.668.949-.32-1.237-3.744-2.39-3.744-.464 0-1.55-.766-2.412-1.702-6.089-6.602-37.414-15.875-65.964-19.526-20.747-2.653-55.648-2.985-76.368-.726-31.86 3.474-65.841 13.064-72.745 20.53-1.034 1.118-2.093 1.898-2.354 1.735-3.346-2.092-3.306 29.03.072 55.988 7.418 59.205 28.69 105.019 66.588 143.41 13.363 13.537 29.614 27.141 38.354 32.107 4.692 2.666 6.863 2.308 13.605-2.245zm-12.22-3.292c-1.472-.867-5.672-3.87-9.333-6.675-3.661-2.804-7.04-5.099-7.508-5.099-.469 0-1.802-.856-2.963-1.902l-2.112-1.902 2.427 1.762c3.264 2.368 3.086 1.706-.275-1.026-1.486-1.208-2.488-1.847-2.227-1.419 1.078 1.764-.806.59-3.191-1.988-1.407-1.521-1.83-2.186-.94-1.478.89.708-3.197-3.718-9.08-9.837-10.373-10.785-20.292-22.652-26.806-32.072-3.713-5.367-4.692-6.516-3.628-4.255l.77 1.637-1.327-1.637c-.73-.9-1.19-2.02-1.022-2.489.168-.469.03-.68-.307-.47-.647.405-2.788-3.188-2.233-3.75.178-.18-1.11-2.996-2.863-6.258-4.646-8.649-8.226-16.301-12.386-26.475-2.024-4.95-3.855-8.825-4.068-8.61-.213.216-.236-.3-.05-1.145.218-1.005.135-1.256-.242-.724-.819 1.154-3.003-5.212-2.459-7.165.339-1.214.279-1.315-.31-.523-.567.765-.639.475-.326-1.31.318-1.81.246-2.084-.345-1.308-.634.832-.69.8-.364-.214.21-.658-.328-4.046-1.196-7.529-4.21-16.883-8.6-46.927-8.817-60.34-.033-2.065-.195-2.565-.54-1.672-.457 1.18-.525 1.156-.917-.328-.233-.88-.427-3.148-.432-5.038-.014-5.21-1.281-4.54-2.167 1.146-.14.9-.29-2.783-.333-8.183-.043-5.401.136-10.115.398-10.475.261-.36 1.345-.654 2.408-.654 2.328 0 2.801-1.415 1.413-4.23-.907-1.838-.867-2.028.761-3.7 1.655-1.698 7.752-4.861 11.102-5.76 1.563-.418 1.558-.398-.162.594-.979.564-1.78 1.312-1.78 1.66 0 .811-.018.813 3.236-.348 3.28-1.17 4.112-1.231 3.517-.257-.289.473-.021.59.77.338 13.93-4.433 25.856-7.394 38.428-9.539 5.953-1.015 10.105-1.994 9.384-2.21-.712-.214.162-.242 1.941-.062 2.472.25 3.007.156 2.265-.401-.739-.555-.12-.652 2.59-.407 1.957.176 9.82.068 17.473-.242 25.803-1.045 36.57-1.273 35.765-.758-.441.282 3.52.873 8.802 1.312 11.734.977 29.613 3.56 39.29 5.676 3.954.865 7.891 1.415 8.75 1.222 1.274-.286 1.382-.212.588.404-.8.622-.724.685.43.358 1.674-.474 4.872.231 4.418.974-.176.288.309.358 1.077.155 1.017-.27 1.259-.145.89.458-.376.617-.134.709.951.36.932-.299 1.309-.226 1.047.203-.235.385 1.04 1.155 2.993 1.808 6.461 2.16 13.764 5.606 15.595 7.36 3.844 3.679 4 4.446 3.856 18.952-.112 11.252-1.366 31.252-2.473 39.433-.348 2.573-.152 2.132 1.75-3.928.734-2.34 1.586-4.574 1.893-4.964.308-.39.84-2.305 1.181-4.255.591-3.364.605-3.294.283 1.364-2.265 32.678-13.446 71.584-28.469 99.059-12.783 23.379-31.257 46.524-49.44 61.942l-4.197 3.56 2.944-3.232c1.62-1.778 3.419-4.303 3.998-5.611.58-1.308 2.007-3.518 3.172-4.91l2.117-2.531-2.233 2a1051.5 1051.5 0 0 0-6.439 5.85c-5.059 4.63-18.165 15.263-24.06 19.519-5.37 3.875-7.163 4.243-10.653 2.19zm-16.415-77.675c2.746-2.777 1.094-4.743-2.09-2.487-1.164.826-2.23 1.568-2.37 1.651-.526.31 1.42 2.146 2.275 2.146.49 0 1.474-.59 2.185-1.31zm-17.074-9.841c.053-1.068-.112-1.942-.366-1.942-.879 0-2.146 3.189-1.716 4.32.62 1.636 1.958.108 2.082-2.378zm47.424-.394c1.187-.599 1.307-.87.584-1.315-.5-.308-1.53-1.592-2.288-2.852-1.71-2.843-4.069-5.439-4.524-4.978-.188.19.606 1.84 1.765 3.667 1.738 2.74 2.047 3.768 1.768 5.876-.374 2.821.285 4.281.847 1.875.195-.836 1.027-1.859 1.848-2.273zm34.359-1.057c-.005-.45-.26-1.218-.566-1.707-.711-1.135-1.648.182-1.12 1.574.442 1.164 1.7 1.263 1.686.133zm-25.877-14.286c0-.309-.583-.877-1.295-1.262-.712-.386-1.294-1.132-1.294-1.66 0-.527-.291-.959-.647-.959-1.11 0-.73 3.817.446 4.482 1.175.665 2.79.317 2.79-.6zm-50.952-9.118l.353-3.6-1.003 2.29c-.551 1.261-1.107 3.765-1.234 5.565-.229 3.222-.219 3.243.65 1.31.484-1.08 1.04-3.585 1.234-5.565zm33.993 4.157c.162-1.106.671-1.298 3.329-1.258 3.63.054 5.552-1.285 6.213-4.33.321-1.478.095-2.304-.938-3.415-.75-.807-2.49-3.751-3.869-6.544-2.838-5.749-2.726-5.992 2.543-5.48 1.765.171 3.209.108 3.209-.142 0-.859 3.302-1.973 5.85-1.973 1.851 0 2.774.36 3.36 1.31.445.72 1.248 1.3 1.786 1.29.774-.017.742-.159-.156-.688-2.014-1.187-1.2-1.98.903-.88 1.57.82 1.83 1.197 1.133 1.643-.662.424-.47.576.715.57 1.615-.01 1.615-.012-.496-1.954-1.613-1.485-2.734-1.945-4.735-1.945-1.441 0-3.184-.305-3.873-.678-1.535-.831-1.733-2.922-.22-2.335.567.22 1.804.566 2.75.77l1.72.37-1.618-1.439c-.89-.791-2.42-1.725-3.398-2.074-2.134-.76-2.322-2.31-.369-3.04 1.33-.498 1.302-.551-.485-.926-1.217-.256-2.302-1.133-3.029-2.45-.997-1.806-1.366-1.998-3.1-1.613-2.21.491-5.152-1.015-5.152-2.64 0-.53.613-1.586 1.363-2.344l1.363-1.379-1.25-4.022c-1.197-3.851-1.402-4.097-4.832-5.768-5.314-2.589-5.498-4.753-.684-8.062 2.912-2.001 5.196-2.081 8.645-.301 2.8 1.445 4.456 4.309 4.456 7.706 0 1.266 1.167 3.496 3.517 6.718 3.647 5.001 5.158 8.82 4.788 12.104-.175 1.556-.575 1.965-2.157 2.202-1.707.257-1.59.336.97.655 2.436.303 3.076.691 3.905 2.369 1.331 2.693 4.493 6.703 4.502 5.71.004-.437-.6-2.352-1.342-4.255-.742-1.904-2.354-7.291-3.582-11.972-1.29-4.918-3.383-10.843-4.96-14.038-1.5-3.04-2.826-5.765-2.945-6.055-.118-.29.381-.528 1.11-.528 2.145 0 5.79 3.784 8.557 8.883 2.721 5.016 4.913 7.042 7.252 6.705 1.222-.176 1.402-.58 1.302-2.922-.134-3.143-2.249-7.727-4.106-8.9-1.885-1.19-1.563-1.802.948-1.802 2.235 0 3.516-.879 2.347-1.61-.344-.215-2.791-.951-5.438-1.636-2.646-.684-7.758-2.61-11.359-4.28-3.974-1.843-7.024-2.883-7.76-2.646-.668.214-2.786 1.78-4.707 3.48-5.307 4.696-9.502 7.613-14.14 9.832-7.785 3.724-9.385 6.344-11.258 18.43-.582 3.764-1.293 7.004-1.579 7.202-1.215.841-7.339 9.511-8.214 11.63-1.15 2.785-1.195 4.173-.203 6.374.936 2.078 3.325 2.218 4.672.272 1.498-2.162 3.004-1.163 2.547 1.689-.243 1.516-.118 2.325.359 2.325 1.146 0 3.342-2.51 4.368-4.995 1.229-2.974 2.422-3.337 5.403-1.642 3.109 1.767 6.747 1.808 8.894.1.899-.715 1.871-1.153 2.16-.972.705.441 1.587-1.018 1.587-2.626 0-1.766 2.012-2.04 2.884-.394.522.987.497 1.67-.094 2.629-1.145 1.854-.102 2.49 2.043 1.245l1.837-1.066.274 2.377c.246 2.133-.043 2.69-2.82 5.425-3.417 3.367-4.343 5.722-3.226 8.202.84 1.863 2.243 1.753 2.53-.198zm-25.109-13.692c0-1.945 1.058-4.212 1.965-4.212.896 0 .772 4.171-.152 5.106-1.214 1.228-1.813.933-1.813-.894zm8.73-8.57c-.59-.595-1.334-1.781-1.655-2.635-.852-2.267-2.368-2.569-4.193-.834-1.911 1.816-2.653 1.322-1.73-1.154.373-1.001 1.027-4.593 1.453-7.981 1.215-9.673 3.974-11.268 6.185-3.575.555 1.933 1.426 3.936 1.935 4.45.509.515.925 2.118.925 3.562 0 2.122.496 3.205 2.589 5.65 1.423 1.665 2.588 3.156 2.588 3.314 0 .158-1.58.287-3.513.287-2.406 0-3.85-.341-4.584-1.083zm25.895-41.128c-1.56-1.3-1.762-1.738-1.03-2.227 1.793-1.198 5.775 1.425 4.508 2.969-.974 1.187-1.228 1.133-3.478-.742zm19.2 57.421c.632-.639-.177-.806-3.894-.806-7.078 0-10.452-2.34-10.452-7.246 0-5.398 6.798-6.888 8.528-1.869.362 1.053.932 1.913 1.266 1.913.355 0 .329-.524-.064-1.266-1.094-2.069-.786-2.657 1.434-2.738 1.573-.057 1.236-.222-1.34-.656-1.892-.318-3.985-.873-4.649-1.232-2.642-1.43-7.063-.48-8.876 1.908-2.272 2.994.376 9.184 4.995 11.677 2.466 1.33 3.628 1.537 7.584 1.347 2.569-.124 5.03-.588 5.469-1.032zm13.105-4.169c-.25-.409-.486-1.342-.524-2.073-.038-.731-.474-1.466-.968-1.633-.546-.183-.722-.012-.447.437.277.453-.038.74-.812.74-.695 0-1.43.442-1.636.982-.278.734.103.982 1.511.982 1.036 0 2.063.294 2.283.654.22.36.546.655.724.655.178 0 .119-.335-.131-.744zm-2.604-16.656c.483-1.275-.237-6.167-.909-6.167-1.029 0-1.768 5.841-.855 6.764.708.717 1.347.5 1.764-.597zm-66.9-3.65c1.416-2.216 2.571-4.352 2.567-4.746-.005-.395-.727.556-1.607 2.111-.879 1.556-2.206 3.691-2.948 4.746-.743 1.055-1.179 1.918-.969 1.918.21 0 1.54-1.813 2.957-4.03zm68.887-14.443c-.458-2.747-1.443-3.77-2.304-2.397-.955 1.526-.646 5.094.548 6.328 1.087 1.122 1.154 1.116 1.65-.146.286-.724.333-2.427.106-3.785zm-65.274.974c-.215-.217-.368.17-.34.86.03.762.184.917.39.395.188-.473.165-1.037-.05-1.255zm5.11-9.342c.644-.72 1.026-1.31.848-1.31-.178 0-.851.59-1.495 1.31-.645.72-1.026 1.309-.848 1.309.178 0 .85-.59 1.495-1.31zm56.976-15.281c.855-4.61-3.292-9.636-8.772-10.631-2.242-.408-2.24-.402.653 1.13 5.092 2.7 7.384 8.498 4.822 12.199-.555.8-.8 1.798-.544 2.217.69 1.128 3.352-2.28 3.84-4.915zm-38.855 3.497c.644-.72 1.026-1.31.848-1.31-.178 0-.851.59-1.495 1.31-.645.72-1.026 1.31-.848 1.31.178 0 .85-.59 1.495-1.31zm4.207-3.6c.443-.54.66-.982.482-.982-.178 0-.686.441-1.13.982-.443.54-.66.982-.482.982.178 0 .687-.442 1.13-.982zm-11.326-12.49c-5.589-2.032-5.868-5.823-.58-7.866 2.562-.99 4.189-.96 6.992.129.683.265 1.03.04 1.03-.668 0-1.412 2.544-2.33 6.676-2.41 2.652-.052 3.016-.176 1.738-.59-6.634-2.149-18.875 1.264-21.664 6.04l-1.187 2.032 2.355 2.183c1.833 1.699 2.896 2.173 4.792 2.137l2.437-.046-2.59-.941zM21.774 46.915c0-10.938.153-13.044.971-13.361.84-.327.97 1.162.97 11.059 0 12.704-.237 12.155 4.531 10.453 3.164-1.129 3.883-1.206 3.883-.415 0 .312-2.198 1.378-4.885 2.37-2.686.99-4.77 1.917-4.632 2.057.14.14 2.46-.547 5.156-1.528 4.338-1.578 4.933-1.994 5.168-3.615.292-2.012.025-2.017-4.607-.1-4.168 1.726-4.043 2.069-3.833-10.553.105-6.302.161-11.457.125-11.456-.035 0-.982.324-2.103.72l-2.038.718v13.722c0 8.981.224 13.582.647 13.317.396-.247.647-5.438.647-13.388zM129.1 59.402c.646-.414.489-.653-.624-.947-.818-.216-1.646-.134-1.84.183-.194.317-1.37.701-2.612.853-1.816.221-1.625.294.976.37 1.78.052 3.625-.154 4.1-.459zm77.904-13.578l-.189-12.844 1.807.451c2.135.534 1.308-.56-.944-1.248l-1.456-.445v13.464c0 7.406.219 13.465.485 13.466.267 0 .4-5.78.297-12.844zm-12.506-.174c-2.196-5.46-4.109-9.81-4.252-9.666-.142.145 1.24 4.055 3.074 8.69 1.833 4.636 3.6 9.132 3.929 9.992.328.86.74 1.417.918 1.238.177-.18-1.474-4.794-3.67-10.254zM39.564 50.963c.613-4.133.853-4.563 2.805-5.034.953-.23 2.22-.563 2.814-.741.863-.259 1.23.398 1.816 3.257l.735 3.582 1.97-.695c2.287-.806 2.44.686-1.545-14.965l-2.762-10.844-1.991.522c-1.868.49-2.06.836-3.097 5.607a1463.15 1463.15 0 0 1-3.241 14.318l-2.135 9.234 2.098-.65c1.85-.575 2.149-.999 2.533-3.59zm-2.034.147c-.21-.555-.239-1.156-.062-1.335.177-.179.477.276.667 1.01.403 1.56-.045 1.801-.605.325zm.475-3.19c-.028-.69.125-1.077.34-.86.215.218.238.783.051 1.255-.207.522-.36.367-.39-.395h-.001zm1.294-5.892c-.028-.69.125-1.077.34-.86.215.218.238.783.051 1.255-.206.523-.36.368-.39-.395zm2.6-1.528c.034-.99.415-3.273.845-5.073l.783-3.273.81 4.52c.66 3.694.654 4.621-.036 5.064-1.602 1.028-2.465.583-2.402-1.238zm-1.952-1.09c-.029-.69.124-1.077.34-.86.215.218.238.782.05 1.255-.206.522-.36.367-.39-.396zm1.007-3.983c.732-4.383 1.564-6.295 1.139-2.619-.208 1.8-.649 3.715-.978 4.256-.39.64-.446.069-.161-1.637zm1.54-7.038c-.007-.77.468-1.128 1.446-1.093.973.034 1.134.175.486.425-.534.206-1.185.698-1.446 1.094-.294.444-.48.281-.486-.426zm144.313 11.057V26.77l1.78.288c1.39.225 1.567.135.808-.409-.534-.382-1.626-.7-2.427-.705l-1.456-.01v13.092c0 8.293.237 13.093.647 13.093.41 0 .648-4.661.648-12.674zM58.393 49.502c.742 0 .935-1.665 1.006-8.674.049-4.771.217-7.938.373-7.038.454 2.609 4.174 14.676 4.704 15.262.265.292.669-.592.898-1.964.229-1.373 1.42-5.59 2.648-9.37l2.232-6.874-.38 8.574-.38 8.573 2.003-.297 2.002-.297.187-13.35.187-13.35h-2.04c-1.97 0-2.09.164-3.467 4.747-.785 2.61-1.93 6.75-2.546 9.2l-1.12 4.453-2.37-7.481c-1.305-4.115-2.372-7.813-2.372-8.218 0-.82-.897-.914-3.074-.324-1.45.393-1.456.451-1.456 13.809 0 11.962.11 13.37 1.024 13.016.563-.218 1.436-.397 1.941-.397zm118.84-12.188l-.188-12.844 1.645.417c.904.23 1.645.151 1.645-.175 0-.326-.874-.722-1.942-.881l-1.941-.288V36.85c0 7.318.218 13.307.485 13.307s.4-5.779.297-12.843zm-9.365 1.55c-.13-1.89-.238-.344-.238 3.437 0 3.78.107 5.327.238 3.437.13-1.89.13-4.984 0-6.874zM87.83 45.52c3.529-.898 5.3-3.227 5.644-7.423.255-3.114.094-3.757-1.286-5.154-1.54-1.557-1.55-1.63-.4-3.065 1.811-2.262 1.585-6.865-.437-8.91-1.5-1.517-1.998-1.62-6.957-1.444l-5.343.19-.174 13.49-.175 13.489 3.41-.293c1.876-.161 4.45-.557 5.718-.88zm-5.22-7.475V33.79h2.49c2.985 0 4.63 1.552 4.63 4.37 0 2.58-1.788 4.14-4.743 4.14H82.61v-4.254zm.259-8.447c-.187-.493-.249-2.182-.137-3.753.181-2.557.386-2.879 1.95-3.061 2.807-.328 4.4.911 4.4 3.42 0 2.516-.765 3.31-3.745 3.881-1.498.287-2.229.143-2.468-.487zm74.168 4.442c0-12.52.033-12.833 1.294-12.5.712.19 1.295.11 1.295-.174 0-.463-2.143-1.292-3.398-1.315-.267-.005-.485 6.03-.485 13.411 0 8.51.236 13.42.647 13.42.41 0 .647-4.717.647-12.842zm42.571-3.855c1.746.336 1.744.33-.18-.584l-1.942-.923-.183 7.56c-.165 6.805-.279 7.438-1.136 6.32-.872-1.135-.896-1.073-.283.724 1.42 4.163 1.608 3.663 1.783-4.754l.18-8.682 1.761.339zm-51.632 14.992c1.06-.658 1.172-.845.324-.543-.712.254-2.314.682-3.56.952-2.226.483-2.231.492-.323.543 1.068.029 2.67-.4 3.56-.952zm-39.6-.93c2.596-1.602 3.94-4.635 4.436-10.019 1.03-11.156-4.015-18.874-10.35-15.833-3.254 1.562-5.11 5.673-5.48 12.13-.676 11.8 4.467 17.993 11.393 13.722zm-5.656-3.864c-2.662-2.693-2.699-13.885-.055-16.732 1.974-2.125 3.577-2.085 5.01.126.896 1.385 1.147 3.142 1.147 8.048 0 4.907-.25 6.664-1.148 8.049-1.348 2.081-3.21 2.273-4.954.509zm29.077 3.854c0-.293-.838-2.928-1.862-5.855l-1.862-5.323 1.534-1.016c3.475-2.304 3.37-9.798-.178-12.62-1.38-1.098-2.626-1.345-6.78-1.345h-5.09v26.84h1.618c1.606 0 1.618-.043 1.618-5.892v-5.891l1.78.007c1.68.007 1.882.347 3.625 6.096 1.823 6.01 1.87 6.085 3.722 5.81 1.031-.153 1.875-.518 1.875-.811zm-2.787-.464c-.152-.27-1.066-2.922-2.033-5.892l-1.758-5.401h-2.536c-1.6 0-2.534-.302-2.53-.818.003-.543 1.211-.854 3.585-.924 1.97-.058 3.977-.438 4.462-.845 2.398-2.013 1.596-7.108-1.331-8.457-1.921-.885-5.853-.977-6.359-.149-.198.325-.418 3.852-.487 7.838-.07 3.986-.288 7.084-.486 6.884-.198-.2-.506-4.022-.684-8.494l-.324-8.13h4.549c5.291.002 6.973.89 8.073 4.262 1.012 3.1.287 5.891-1.999 7.701l-1.898 1.503 1.907 5.706c1.453 4.35 1.695 5.707 1.015 5.707-.49 0-1.015-.221-1.166-.491zm-7.95-14.813c-.189-.496-.253-2.337-.142-4.092.193-3.068.28-3.197 2.293-3.394 4.18-.408 7.107 5.104 3.911 7.368-1.788 1.267-5.599 1.341-6.063.118zm19.243 14.955c-2.528-2.152-3.539-5.368-3.592-11.435-.058-6.552 1.542-10.916 4.454-12.146 2.949-1.247 6.453-.081 7.982 2.654.402.72.74.918.751.44.011-.477-.831-1.73-1.872-2.782-1.45-1.468-2.486-1.914-4.443-1.914-5.607 0-8.174 4.778-7.792 14.504.262 6.702 1.65 10.724 4.035 11.7 2.355.963 2.484.687.477-1.021zm6.578-1.256c2.265-2.29 1.845-7.56-.602-7.56-.49 0-.891-.474-.891-1.052 0-.69.352-.916 1.023-.655.563.219 1.713.397 2.555.397 1.386 0 1.554.327 1.77 3.437l.237 3.437.12-4.091.12-4.092h-3.56c-3.34 0-3.56.099-3.56 1.593 0 1.251.382 1.638 1.78 1.8 1.562.182 1.752.448 1.552 2.172-.336 2.896-1.256 4.257-2.87 4.24-2.4-.024-4.314-2.055-4.929-5.231-.387-2-.591-2.376-.64-1.18-.217 5.388 4.916 9.8 7.895 6.785zm3.56-.704c-.2-.201-.562.162-.805.807-.351.933-.277 1.009.362.367.443-.444.641-.972.442-1.174zm17.598-13.769c0-4.79.028-4.871 1.656-4.871.94 0 1.483-.283 1.257-.655-.22-.36-1.111-.654-1.98-.654-1.544 0-1.58.12-1.58 5.237 0 3.774-.226 5.226-.809 5.198-.445-.021-2.192-.27-3.883-.55-1.69-.282-3.074-.283-3.074-.002 0 .28 1.383.7 3.074.93 1.69.23 3.365.503 3.721.606 1.343.389 1.618-.503 1.618-5.239zm-28.17-1.143c.228-1.37.98-3.064 1.672-3.765.692-.7.973-1.272.626-1.272-1.143 0-2.716 3.17-2.99 6.03-.31 3.234.087 2.664.693-.993zm8.107-.751c0-.883-1.578-3.602-2.24-3.858-.511-.2-.427.44.25 1.906.863 1.867 1.99 2.973 1.99 1.952zm2.59-.993c0-.348-.438-.464-.972-.257-.534.207-.97.493-.97.634 0 .142.436.258.97.258s.971-.286.971-.635zm-132.98-1.858c-.2-.201-.722 0-1.16.447-.635.647-.56.722.362.367.638-.246.997-.612.798-.814z" fill="#D8A016"/><path d="M114.046 262.316c-2.438-.34-4.088-1.138-7.572-3.663-11.942-8.656-21.812-16.682-30.652-24.926-3.391-3.162-10.84-10.762-13.457-13.73-10.695-12.129-19.569-24.56-30.434-42.636-2.395-3.984-5.317-9.936-9.307-18.958-12.956-29.3-19.723-58.88-21.72-94.947C.517 56.436.388 51.022.42 43.07c.027-6.577.06-7.367.376-9.102.599-3.285 1.759-6.398 3.164-8.493 1.739-2.591 6.456-6.331 10.234-8.112 5.336-2.517 18.334-6.414 30.045-9.01 3.18-.704 9.452-1.98 11.58-2.353.624-.11 1.936-.343 2.916-.52a85.47 85.47 0 0 1 2.915-.471c.624-.084 1.644-.26 2.268-.39.623-.131 1.79-.322 2.591-.425.802-.103 2.478-.328 3.725-.5a259.08 259.08 0 0 1 2.997-.4c3.91-.465 5.176-.61 7.774-.89C94.185.98 111.695.31 124.33.742c5.547.19 18.132.912 19.129 1.097.276.051 1.515.15 2.753.22 1.238.07 3.271.25 4.518.402 1.247.15 3.252.386 4.454.521 5.642.636 10.54 1.27 12.634 1.633.757.131 2.761.46 4.454.73 17.825 2.842 32.586 6.984 43.568 12.225 4.75 2.267 6.649 3.541 8.957 6.012 2.692 2.882 4.295 5.923 5.137 9.747.714 3.24.393 23.43-.576 36.254-1.322 17.5-3.599 32.229-7.363 47.628-4.068 16.64-9.524 31.884-17.457 48.774-2.682 5.711-3.409 7.115-5.635 10.884a353.33 353.33 0 0 0-2.256 3.85c-.044.092-.3.498-.566.903-.268.404-.574.881-.68 1.06-.107.179-.508.84-.891 1.47s-.726 1.22-.762 1.31c-.035.09-.11.2-.165.245-.056.045-.42.598-.811 1.228-.391.63-.99 1.562-1.333 2.072-.342.51-.622 1-.622 1.09 0 .091-.055.19-.122.22-.166.075-1.012 1.403-1.012 1.589 0 .082-.11.192-.243.244-.134.051-.243.169-.243.26 0 .092-.4.752-.89 1.466-.49.715-.892 1.371-.892 1.458 0 .087-.109.2-.243.253a.403.403 0 0 0-.243.345c0 .137-.06.25-.134.25-.074 0-.238.203-.365.45a5.826 5.826 0 0 1-.353.614c-.545.724-1.205 1.649-2.387 3.349a203.347 203.347 0 0 1-4.033 5.571c-14.58 19.556-29.827 34.242-53.776 51.798-3.496 2.563-5.134 3.476-7.174 4-1.428.367-3.453.52-4.662.351zm4.145-1.484c2.018-.519 3.694-1.438 6.893-3.783 30.592-22.416 47.684-40.644 67.166-71.63 5.237-8.33 7.776-12.74 9.858-17.127 5.67-11.943 9.753-21.887 13.108-31.93 8.155-24.41 12.557-50.222 13.664-80.118.26-7.019.212-20.617-.08-22.305-.794-4.603-3.59-8.98-7.707-12.065-1.497-1.121-6.805-3.834-10.197-5.211-10.053-4.08-21.549-7.145-36.599-9.755-8.836-1.532-20.376-2.943-31.502-3.851a478.054 478.054 0 0 1-2.997-.253c-1.514-.137-8.629-.554-12.714-.746-7.796-.366-21.932-.177-31.826.426-25.89 1.577-54.298 6.729-73.776 13.378-5.361 1.83-7.268 2.684-10.036 4.497-4.496 2.944-6.547 5.185-8.026 8.77-1.731 4.195-2.04 7.739-1.779 20.405.331 16.067 1.28 28.594 3.16 41.736 3.735 26.105 10.278 48.134 21.464 72.26 4.351 9.385 5.603 11.651 12.524 22.67 1.711 2.723 6.366 9.708 8.291 12.44 13.04 18.506 25.664 31.874 44.47 47.093 4.883 3.953 16.5 12.71 18.463 13.919.711.438 2.586 1.164 3.466 1.342 1.253.253 3.379.18 4.712-.162zm-4.356-6.605c-.988-.282-3.24-1.842-7.842-5.436-28.27-22.074-44.234-39.354-60.166-65.129a355.814 355.814 0 0 1-6.894-11.702c-1.913-3.417-8.006-16.232-11.05-23.241C17.09 123.87 11.16 98.089 9.343 68.11c-.64-10.54-.736-24.976-.187-27.988.603-3.311 1.692-6.206 3.18-8.45 1.62-2.445 4.614-4.876 7.463-6.058 5.852-2.428 19.095-6.218 30.432-8.71 19.721-4.334 38.128-6.575 58.794-7.156 5.685-.16 15.564-.107 17.573.095.357.036 1.741.109 3.078.162 12.79.511 29.956 2.345 42.273 4.516 15.202 2.68 26.778 6.083 36.685 10.783 1.559.74 3.38 1.6 4.045 1.912 5.48 2.568 7.984 6.531 8.811 13.941.407 3.647-.565 21.693-1.852 34.4-3.65 36.015-10.98 62.32-24.782 88.931-5.572 10.743-14.478 25.425-21.211 34.968-11.547 16.365-22.731 27.8-45.247 46.26-.455.374-2.359 1.942-4.23 3.485-1.87 1.542-3.89 3.138-4.49 3.545-2.111 1.436-4.168 1.957-5.843 1.48zm-41.981-58.508c1.988-.913 2.646-2.306 2.913-6.165.178-2.566.677-3.54 1.951-3.808l.643-.136-.081-1.546c-.121-2.31-.098-5.742.042-6.248.068-.244.874-1.386 1.793-2.536 2.177-2.729 3.475-4.618 3.84-5.59.163-.432.451-1.847.642-3.145.39-2.651.22-2.27 3.145-7.089a79.145 79.145 0 0 0 2.893-5.299c.787-1.616 1.56-2.964 1.926-3.361.337-.366.76-.835.939-1.044.18-.208.397-.379.484-.379.331 0 1.296 1.03 1.656 1.767.36.739.375.926.375 4.59 0 3.816 0 3.82.382 4.132.21.173.55.314.754.314.367 0 .367-.007-.087-.495-.662-.716-.815-1.7-.696-4.477.093-2.178.072-2.465-.257-3.45-.198-.59-.337-1.312-.309-1.604.048-.504.089-.534.78-.584.822-.059 1.194-.333 1.635-1.205.31-.613.391-1.11.338-2.046-.025-.448-.148-.587-.867-.982-1.107-.609-1.412-1.07-1.613-2.433-.231-1.575-.042-6.448.294-7.565.296-.984.43-1 1.59-.2 1.13.783 4.568 2.259 6.265 2.691 2.08.53 4.908.592 5.807.128.78-.402 3.68-2.643 4.896-3.782a26.132 26.132 0 0 1 1.982-1.658 34.132 34.132 0 0 0 1.608-1.256c.35-.299.803-.543 1.006-.543.573 0 2.115.634 2.652 1.09.976.83.486 1.67-1.885 3.228-1.87 1.229-3.872 3.419-4.795 5.248-.425.842-2.393 6.73-2.393 7.16 0 .69.532 2.125 1.064 2.872 1.949 2.733 2.889 4.267 3.089 5.042.12.468.33 1.119.466 1.446.525 1.27-.105 1.975-2.235 2.499-.82.202-1.908.417-2.415.478l-.922.11.26.402c.224.344.282.365.404.144.118-.212.476-.258 1.992-.258 1.49 0 2.014-.066 2.703-.34l.854-.341.407.512c.455.572 3.08 3.3 3.08 3.2 0-.412-1.254-3.289-2.248-5.16a110.975 110.975 0 0 1-1.992-3.927c-.41-.876-1.308-2.335-2.054-3.34-.729-.981-1.378-1.976-1.443-2.21-.227-.824-.107-2.22.289-3.349.625-1.782 1.124-1.662 1.128.27.004 1.403.184 1.828 1.74 4.088 1.786 2.592 1.913 2.82 2.803 5.045a25.902 25.902 0 0 0 2.778 5.194c.541.777 1.59 3.602 1.59 4.282 0 .274-.199.625-.546.965l-.546.535-.347-.446c-.191-.245-.398-.395-.46-.333-.06.063-.141.588-.178 1.168-.065 1.04-.057 1.063.52 1.579.551.493.585.582.585 1.517 0 1.182.35 1.986 1.08 2.478.297.2 1.268.497 2.313.708l1.8.362.639-.51c1.116-.894 2.421-2.475 2.602-3.153.209-.783.077-1.46-.361-1.862a3.086 3.086 0 0 1-.55-.73c-.327-.64-.044-.801 1.403-.801 1.179 0 1.271-.027 1.643-.473.43-.517 1.528-2.948 2.173-4.812.33-.952.406-1.479.399-2.725-.008-1.26.069-1.771.417-2.782.576-1.674.58-2.923.015-4.02-.476-.925-.819-1.268-2.033-2.035-1.326-.837-1.157-1.363.66-2.058 1.04-.397 1.567-.838 1.567-1.31 0-.384-.008-.386-1.433-.293-1.426.094-1.435.092-1.741-.358-.895-1.313-1.407-1.502-2.328-.862-1 .696-3.244 4.8-3.244 5.935 0 .66.734 1.327 2.068 1.882.689.286 1.42.628 1.625.76.668.429 1.003 1.194 1.003 2.297 0 .557.077 1.213.17 1.46.092.245.171.92.175 1.5.007.856-.085 1.244-.492 2.08-.653 1.34-2.69 3.991-3.223 4.196-.579.223-1.18-.252-1.47-1.162-.208-.651-.198-.765.142-1.54.765-1.747.854-2.398.672-4.923-.092-1.28-.258-2.526-.368-2.77-.335-.743-.866-.516-1.99.853-1.057 1.285-1.743 1.828-2.315 1.83-.555 0-.748-.556-.65-1.87.1-1.32.388-2.211 1.545-4.768.874-1.93 2.253-5.571 2.725-7.192.36-1.24.402-4.353.074-5.645-.175-.69-.422-1.106-1.07-1.8-1.461-1.562-3.375-4.27-4.4-6.221-1.174-2.235-1.965-4.583-1.544-4.583.22 0 2.019 2.322 2.755 3.558.902 1.513 1.372 1.901 2.175 1.793.587-.08.605-.066.7.516.313 1.936 1.231 3.84 2.665 5.529.661.779 3.406 3.004 4.202 3.407.925.467 2.44.969 4.22 1.395 1.085.26 1.936.33 4.014.331 2.766 0 3.395-.12 4.052-.784.175-.177.747-.477 1.269-.667.522-.19 1.125-.437 1.34-.55.565-.3.998-.965.891-1.369-.085-.319-.238-.35-2.144-.444-2.455-.12-4.634-.633-6.31-1.486a27.886 27.886 0 0 0-2.252-1.006c-1.902-.723-3.348-1.891-3.682-2.975-.167-.542.16-1 .801-1.122.312-.06.607-.173.656-.253.049-.08.212-.146.362-.147.691-.007.734-.207.373-1.757-.431-1.857-.435-2.169-.025-2.169.663 0 1.138.41 2.055 1.775.522.775 1.36 1.835 1.863 2.355.815.842.985.944 1.57.944.36 0 .698-.071.752-.158.053-.087-.052-.452-.234-.812-.202-.4-.33-.972-.33-1.473 0-.683.084-.915.503-1.398.466-.536.57-.578 1.433-.578 1.094 0 1.809.4 2.424 1.355.357.555.457.609 1.125.609.53 0 .905-.12 1.353-.434.525-.368.68-.406 1.015-.252.217.1.572.462.788.802.216.342.614.832.886 1.09.458.437.556.463 1.364.361.484-.06 1.06-.037 1.297.054.734.282.82.672.51 2.303-.26 1.368-.261 1.502-.005 2.179.15.397.492.97.76 1.273.55.622.558.651.805 2.71.236 1.962.039 3.35-.78 5.5-.351.925-.903 2.383-1.226 3.24-.323.858-.795 1.81-1.048 2.118l-.46.557.66.509c.856.657 1.505 1.766 2.423 4.141 1.31 3.392 1.43 3.812 1.451 5.11.016 1.038-.086 1.55-.665 3.307-.915 2.784-.94 3.857-.117 4.947.312.413.567.874.567 1.025 0 .15-.4.942-.89 1.76-2.022 3.378-2.015 4.913.032 6.803 1.07.988 2.016 1.51 2.612 1.44.403-.047.436-.112.483-.95.056-1.01.51-1.685 1.077-1.603.283.04.346.21.44 1.166.135 1.384.208 1.582.582 1.582.672 0 2.927-1.777 3.38-2.664l.246-.48-.701.491c-.386.27-.878.682-1.094.917-.47.511-.956.543-1.517.097-.57-.453-.666-1.087-.351-2.312.368-1.431.252-2.54-.319-3.036-.372-.324-.615-.379-1.681-.38-.685 0-1.351-.07-1.48-.153-.435-.278.063-.94 1.11-1.474 1.518-.775 1.598-1.322.293-1.995-.865-.447-1.077-.732-1.083-1.467-.007-.845.577-1.637 1.445-1.962 1.04-.388 1.465-.961 1.465-1.974 0-1.123-.385-1.857-1.363-2.6-1.594-1.211-1.552-1.141-1.552-2.607 0-1.06.058-1.373.299-1.617.222-.225.322-.644.39-1.635.058-.859.21-1.584.43-2.04.535-1.12.48-1.407-.568-2.979-.67-1.004-.875-2.023-.875-4.349 0-.972-.067-1.945-.149-2.163-.21-.558-.021-2.415.257-2.523.47-.183 1.197.326 1.715 1.2.57.962.688 1.043.815.552.136-.524.924-.407 2.79.414 4.23 1.86 8.97 2.24 11.525.923 1.458-.752 4.083-3.052 4.756-4.167.628-1.04.587-1.06-2.03-.97-2.65.09-4.24-.105-5.993-.739-1.487-.537-3.13-1.649-4.056-2.744-.41-.484-1.497-1.512-2.417-2.284-.92-.771-1.715-1.512-1.765-1.646a.407.407 0 0 0-.352-.244c-.496 0-2.687-1.023-3.888-1.815-.664-.439-1.508-.952-1.874-1.14-1.166-.602-5.602-1.512-8.36-1.716l-1.494-.11-.108-.597c-.2-1.09-.527-1.817-1.514-3.357-.815-1.271-.978-1.645-.98-2.246-.005-.864-.357-1.688-1.525-3.569-.583-.937-.994-1.844-1.23-2.71a24.417 24.417 0 0 0-.978-2.733c-.782-1.794-1.054-2.78-1.283-4.64-.254-2.063-.539-3.22-1.274-5.177a27.035 27.035 0 0 1-.996-3.497c-.511-2.57-.703-3.045-2.024-5.002-.649-.962-1.234-1.998-1.3-2.302-.065-.304-.316-.78-.557-1.06-.24-.278-.72-.978-1.066-1.554a50.466 50.466 0 0 0-.999-1.603c-.204-.305-.37-.757-.37-1.003 0-.697.387-.903 1.604-.855 2.565.1 4.549 2.043 7.142 6.995 2.06 3.936 3.752 5.965 5.86 7.03.827.42 1.36.581 1.91.581.968 0 1.32-.36 1.424-1.458.09-.946-.095-1.817-.975-4.598-.507-1.6-.67-2.41-.749-3.719-.122-2.024-.214-2.148-2.05-2.79-1.58-.551-1.674-.84-.379-1.17 1.281-.329 2.648.02 4.147 1.06.982.68 1.17.75 1.792.68.563-.063.871-.244 1.627-.957.854-.803.927-.928.867-1.464-.075-.658.361-1.67.946-2.197.48-.431.752-1.108 1.312-3.254.745-2.86.55-5.245-.59-7.22-.911-1.578-5.24-5.053-7.753-6.226-2.296-1.07-2.408-1.08-14.84-1.226-13.866-.164-20.037-.47-21.83-1.082-2.587-.885-4.45-2.488-4.176-3.593.157-.632 1.026-1.498 1.802-1.798 1.442-.557 3.48-.16 7.44 1.447 3.632 1.473 5.832 1.847 10.033 1.705 3.73-.127 6.678-.577 7.435-1.137.278-.205.277-.224-.004-.48-.162-.146-1.351-.539-2.643-.873-2.83-.732-4.373-1.322-4.373-1.673 0-.22.28-.24 2.146-.16 2.17.094 4.588.505 6.465 1.1 1.162.368 3.786.452 4.646.15.566-.2.67-.619.256-1.037-1.038-1.048-6.733-3.105-11.11-4.011-2.758-.572-4.895-.711-9.495-.62-5.661.112-8 .53-10.707 1.91-2.21 1.128-4.795 3.502-5.609 5.152-.953 1.932-.31 3.22 2.433 4.88 1.899 1.15 3.385 1.62 6.56 2.08 5.748.833 9.807 1.03 20.974 1.019 5.455-.007 9.802.057 10.366.151 1.679.279 3.653.991 4.68 1.69 1.207.82 2.69 2.577 3.465 4.105.509 1.003.582 1.298.591 2.373.01 1.057-.054 1.345-.456 2.078-.625 1.14-1.91 2.572-2.547 2.839-.757.317-2.587-.007-4.752-.833-1.504-.576-2.045-.7-3.563-.811-1.973-.145-2.195-.211-5.128-1.523-2.996-1.34-7.555-2.834-9.84-3.227-1.09-.187-2.15.025-3.667.734-1.533.716-2.414 1.42-5.46 4.368-2.87 2.776-4.174 3.811-5.778 4.587-2.915 1.409-11.24 6.135-12.015 6.819-1.136 1.004-3.05 3.349-3.857 4.723-1.476 2.516-1.933 4.495-2.109 9.134-.12 3.158-.142 3.32-.647 4.618-.563 1.45-2.062 4.06-4.087 7.115-1.903 2.871-3.273 5.158-4.188 6.986-1.8 3.602-2.11 4.981-2.266 10.087l-.115 3.764-.587 1.727c-.323.95-.998 2.717-1.499 3.928-1.858 4.488-1.822 4.26-1.994 12.513l-.127 6.056-.679 1.354a25.893 25.893 0 0 1-1.388 2.4c-.897 1.325-1.15 2.39-1.482 6.23-.14 1.62-.29 3.252-.331 3.626-.068.6-.32.95-2.12 2.946-3.43 3.807-4.744 5.79-4.744 7.163 0 .68-.052.77-.691 1.214-1.256.873-3.024 2.915-3.616 4.177-.7 1.49-.865 2.878-.441 3.706.476.928.792.774 2.131-1.037l1.19-1.61.39.37c.213.203.389.462.389.574 0 .113-.294.818-.654 1.568-.361.754-.633 1.545-.607 1.771.062.55.625.633 4.014.594 2.396-.028 2.756-.069 3.482-.403zm-1.506-8.877c-.56-.221-1.395-2.117-1.257-2.857.117-.633.275-.679 1.118-.323.874.37 1.303.303 2.12-.327.797-.615 1.05-.685 1.355-.376.287.29.238.798-.147 1.528l-.583 1.107c-.454.864-1.866 1.54-2.606 1.248zm5.224-15.448c-.36-.363-.398-.534-.398-1.787 0-.761-.036-1.483-.08-1.603-.043-.12-.007-.328.08-.463.131-.206.238-.159.654.286.404.434.62.532 1.166.532.46 0 .784-.109 1.036-.348.495-.47.873-.3.857.384-.025 1.107-.724 2.355-1.662 2.97-.817.535-1.147.541-1.653.03zm51.543-1.468c-.429-.117-.853-.286-.942-.377-.28-.283-.548-2.279-.373-2.783.341-.984 1.563-.53 1.869.696.177.71.203.733.805.733.717 0 .959.302.959 1.197 0 .5-.057.574-.506.665-.67.135-.889.12-1.812-.131zM78.95 156.339c-.678-.303-.917-1.107-.834-2.808.075-1.568.71-3.03 1.57-3.615l.54-.367.404.485c.245.294.56.485.8.485.593 0 1.822-.705 2.733-1.568a78.869 78.869 0 0 1 1.73-1.578c1.145-1.01 1.43-1.686 1.422-3.363-.013-2.173-.164-2.625-1.19-3.557-1.036-.939-1.437-1.765-1.44-2.963-.003-1.404.678-2.192 1.893-2.192.67 0 1.135.448 1.978 1.906 1.39 2.401 3.418 3.331 4.752 2.179.638-.552.85-.591 1.21-.228.207.21.254.69.254 2.609 0 1.293.067 2.528.149 2.746.101.27.439.514 1.06.769 1.105.453 1.459 1.004 1.338 2.086-.097.875-.594 1.458-1.437 1.687-.906.247-1.574.007-4.347-1.56-.838-.473-1.773-.532-2.354-.148-.218.144-.767.769-1.221 1.388-.643.876-1.18 1.365-2.435 2.214-1.764 1.195-2.27 1.704-3.297 3.325-.736 1.16-1.615 2.139-1.924 2.142-.104 0-.336.037-.514.08-.178.042-.556-.027-.84-.154zm26.026-34.643c-.58-.271-1.417-.572-1.863-.667-1.036-.223-1.634-.534-1.945-1.014-.222-.342-.221-.483.006-1.382.294-1.156.143-2.062-.428-2.582-.287-.262-.57-.308-1.741-.285-.804.015-1.7.137-2.108.286-.39.143-.727.26-.749.26-.077 0 .112-1.555.262-2.158.106-.425.318-.707.722-.96.967-.603 1.1-.953.996-2.596-.127-1.973.12-2.947.752-2.958.078 0 .413.273.745.61.42.427.717.964.975 1.76.631 1.95.9 2.373 1.504 2.376.969.007 1.009.1 1.009 2.406 0 2.52.157 2.91 1.842 4.593 2.593 2.588 2.602 3.52.02 2.31zm26.336-13.151c-.06-.239-.06-1.085 0-1.88l.108-1.446-.46-.305c-.411-.272-.822-.305-3.788-.31-2.906-.007-3.41-.044-3.975-.311l-.648-.307.486-.119c.267-.066 1.178-.128 2.025-.14 1.778-.023 2.473-.183 3.225-.744 2.108-1.571 1.682-3.515-1.454-6.648-1.955-1.951-2.297-2.486-2.226-3.478l.05-.687.81.828a11.023 11.023 0 0 1 1.374 1.8c.889 1.533 3.838 5.608 4.946 6.836 1.612 1.786 2.214 3.343 1.953 5.05-.139.902-1.09 2.056-1.814 2.196-.446.087-.517.049-.612-.335zm-3.524-25.909a10.928 10.928 0 0 1-.782-.999c-.205-.302-.72-.949-1.142-1.437-.924-1.067-1.052-1.446-.63-1.872.432-.437 2.264-.444 3.067-.012.817.44 1.44 1.743 1.568 3.277l.1 1.203-.49-.109c-.365-.08-.516-.043-.588.145-.148.391-.65.302-1.103-.196zm-4.753-23.072c-.178-.044-.668-.227-1.088-.408-.923-.397-1.147-.87-.615-1.306.47-.385.837-.374 1.657.05.369.19 1.113.382 1.654.427.685.057 1.168.207 1.59.495.667.453.74.61.352.76-.295.115-3.067.1-3.55-.018zm-33.348 127.9c1.115-.577 2.141-1.775 3.057-3.566.452-.886 1.079-1.81 1.55-2.289.952-.968 1.148-1.335 1.594-2.986.42-1.555 1.134-3.015 2.433-4.98 1.472-2.222 2.129-2.853 4.063-3.902 3.052-1.655 3.233-1.877 3.426-4.181.075-.899.244-1.844.375-2.101.303-.592 1.827-1.99 3.068-2.812l.956-.635h-4.488c-3.481 0-4.736.057-5.597.255-.61.14-1.463.232-1.895.205l-.785-.05-1.008 2.536c-.555 1.395-1.01 2.68-1.013 2.854-.006.543-.517 2.438-.82 3.038-.418.831-3.167 3.724-3.894 4.1-.342.175-.833.32-1.092.32-.568 0-1.21.478-1.474 1.099-.107.252-.706.82-1.34 1.274-1.455 1.038-3.248 2.709-3.7 3.448-.538.88-.798 2.131-.8 3.846-.002 1.745.341 3.262.739 3.262.133 0 .761-.368 1.396-.818 1.853-1.315 2.23-1.035 1.102.818-.356.585-.648 1.149-.648 1.253 0 .319 1.148.535 2.592.487 1.11-.036 1.537-.128 2.203-.474zm1.586-8.925c-1.04-.768-2.008-1.756-2.008-2.05 0-.165.383-.464.988-.773l.989-.504.656.439c.893.597 1.63.67 2.685.263 1.18-.454 1.31-.375 1.132.678-.08.468-.233 1.029-.341 1.246-.256.513-1.301.973-2.49 1.095-.871.09-1 .058-1.61-.394zm17.023.295c.364-.094.19-.13-.7-.144-1.036-.017-1.18-.056-1.134-.306.029-.158.43-.47.893-.696.462-.225.899-.47.971-.546.073-.075.132-.717.132-1.427 0-1.545.224-1.87 1.451-2.101.847-.16 1.222-.499 1.222-1.105 0-.28-.174-.448-.715-.69-.893-.399-1.2-.887-.787-1.25.158-.14.89-.779 1.626-1.42 1.185-1.034 1.364-1.263 1.558-2.002.422-1.609.755-3.65.647-3.959-.155-.438-.725-1.048-.981-1.048-.118 0-.36-.148-.539-.328-.216-.218-.324-.254-.324-.109 0 .12-.484 1.022-1.076 2.005-.592.983-1.368 2.4-1.726 3.149-.58 1.215-.756 1.434-1.637 2.037-2.462 1.687-3.781 3.826-4.14 6.714-.168 1.352-.059 2.244.274 2.244.13 0 .62-.331 1.09-.737.469-.405.98-.736 1.135-.736.252 0 .27.12.171 1.118l-.11 1.118.54.175c.63.203 1.472.22 2.16.044zm50.574-56.405c.305-.235.878-.871 1.273-1.413l.718-.985-.409-.51c-1.62-2.02-2.628-3.527-3.403-5.087-.493-.993-.893-1.915-.89-2.05.009-.398.503-.91 1.475-1.53 2.199-1.403 2.438-1.991 2.534-6.232.045-1.995.002-3.45-.121-4.092-.264-1.372-1.02-2.857-2.02-3.97l-.845-.939-.634.193c-.776.237-1.956 1.364-2.356 2.248-.423.937-.373 2.036.194 4.266.34 1.332.498 2.348.5 3.193.001 1.475-.06 1.86-.754 4.735-.702 2.908-.91 4.499-.906 6.92.003 2.15.217 3.197.84 4.115 1.073 1.583 3.485 2.155 4.804 1.138zm-136.653-62c1.492-.8 5.44-2.483 8.7-3.708l2.793-1.05v-2.25c0-1.268-.064-2.25-.149-2.25-.2 0-4.953 1.947-6.551 2.685-.702.323-1.34.588-1.418.588-.08 0-.141-5.053-.141-11.539 0-6.346-.055-11.54-.122-11.541-.067 0-1.188.495-2.49 1.104l-2.37 1.108-.07 13.585c-.037 7.471-.042 13.64-.01 13.707.128.265.828.097 1.828-.439zm187.905-5.78c-.027-3.219-.1-9.41-.162-13.759l-.111-7.907-2.106-.89c-1.158-.49-2.306-.89-2.55-.89h-.446v27.294l.688.184c.379.101 1.527.545 2.551.987 1.024.441 1.936.809 2.025.817.106.01.144-2.004.111-5.836zm-8.961-17.406l.022-7.626-1.822-.61c-1.002-.336-1.948-.678-2.103-.762-.155-.084-.5-.152-.77-.152h-.487l-.02 6.915c-.01 3.803-.007 7.007.007 7.12.117.91-.687-.882-3.552-7.917-2.481-6.09-3.39-8.157-3.638-8.262-.61-.26-3.622-.966-4.124-.966h-.497V52.48h.414c.337 0 3.503.737 4.649 1.083.27.081.28-.348.182-8.314-.072-5.805-.051-8.35.065-8.236.092.09 1.88 4.36 3.972 9.488l3.803 9.325 1.84.583 1.839.582.098-6.06c.055-3.334.11-9.494.122-13.688zM35.924 55.02c.264-.133 1.2-.466 2.08-.74.878-.273 1.608-.514 1.62-.535.013-.02.376-1.787.806-3.926l.783-3.889.744-.222c2.556-.761 4.259-1.13 4.37-.947.066.106.436 1.61.823 3.342.387 1.732.751 3.205.809 3.273.057.069 1.157-.124 2.444-.428 1.925-.455 2.33-.6 2.29-.825-.027-.15-.633-2.277-1.348-4.727-.714-2.45-2.356-8.1-3.648-12.556-1.292-4.455-2.38-8.13-2.416-8.168-.037-.037-.815.127-1.729.364-.914.237-1.841.451-2.06.476-.392.043-.44.223-2.377 8.964-1.088 4.906-2.557 11.522-3.265 14.702-1.277 5.732-1.285 5.784-.944 5.923.471.193.475.192 1.018-.081zm6.047-12.653c0-.26 1.62-8.286 1.724-8.546.118-.292.32.448 1.265 4.624l.693 3.068-.666.173c-.7.181-2.248.606-2.732.748-.156.046-.284.016-.284-.067zm138.699-4.73l.097-13.615-.927-.187c-.51-.104-1.692-.357-2.627-.563-.936-.206-1.829-.372-1.985-.368-.266.006-.285.602-.323 9.84-.04 9.53.015 17.47.122 17.58.122.127 5.353 1.11 5.445 1.024.055-.052.144-6.222.198-13.71zM57.455 49.452c1.139-.225 2.093-.41 2.119-.41.026 0 .067-3.111.09-6.914.032-5.158.087-6.811.219-6.506.097.225 1.184 3.152 2.415 6.506 1.232 3.353 2.319 6.095 2.415 6.094.524-.007.476.137 3.851-11.454.459-1.576.895-2.935.969-3.02.074-.086.134 2.952.134 6.751 0 3.799.055 6.907.122 6.906.194 0 3.797-.475 4.341-.57l.495-.086-.055-13.215c-.03-7.269-.093-13.462-.14-13.764-.081-.513-.119-.542-.602-.458-1.388.24-3.713.464-4.08.394-.227-.044-.442-.032-.478.027-.036.06-1.058 3.308-2.27 7.22a7343.313 7343.313 0 0 1-2.377 7.657c-.094.298-.203.51-.241.471-.04-.039-1.09-3.045-2.335-6.68-1.246-3.635-2.294-6.691-2.33-6.79-.044-.126-.653-.064-1.98.2-1.055.21-2.143.383-2.418.385l-.5.007-.107 5.182c-.06 2.85-.108 9.032-.108 13.737 0 9.145-.042 8.595.674 8.723.058.01 1.038-.166 2.177-.39v-.003zm113.887-13.554l.042-13.69-.366-.08c-1.579-.34-3.976-.746-4.415-.746h-.534l.09 5.32c.086 5.15.08 5.319-.219 5.319-.17 0-1.51-.183-2.98-.407-1.47-.223-2.728-.408-2.794-.409-.067 0-.122-2.431-.122-5.4v-5.398l-.364-.076c-.722-.151-4.1-.588-4.535-.586h-.446V47.18l2.551.336c1.403.184 2.595.31 2.65.28.054-.03.061-2.867.017-6.303l-.081-6.248.387.09c.214.05 1.572.257 3.02.46l2.632.368v12.714l.526.009c.29.006 1.438.179 2.551.386 1.114.208 2.098.364 2.187.346.106-.02.176-4.76.203-13.722v.001zM146.33 46.67c2.46-.647 4.06-2.201 4.826-4.685.268-.871.305-1.545.305-5.56v-4.568h-7.45v.794c0 .437-.048 1.357-.105 2.046l-.105 1.252h3.157l-.057 2.181c-.052 2.04-.084 2.224-.487 2.839-1.197 1.826-3.673 1.503-5.118-.667-1.046-1.573-1.092-1.94-1.092-8.854 0-6.087.008-6.234.355-6.89.432-.814 1.356-1.663 1.956-1.796.244-.053.528-.124.633-.156.383-.117 1.372.28 1.93.775.702.623 1.174 1.527 1.306 2.502l.1.737h2.408c2.75 0 2.553.15 2.174-1.657-.782-3.729-3.808-6.2-7.592-6.2-3.737 0-6.8 2.353-7.914 6.077-.163.542-.214 2.285-.212 7.181.003 7.142.093 7.997 1.052 9.936.614 1.24 1.945 2.734 3.123 3.503.875.572 2.396 1.18 3.354 1.342.94.159 2.588.096 3.453-.132zm-61.275-.895c5.549-.47 5.91-.573 7.316-2.092 2.589-2.797 2.949-8.59.678-10.91-.509-.518-1.575-1.07-2.082-1.076-.21 0-.076-.128.382-.357 2.445-1.223 3.17-6.328 1.425-10.04-.678-1.443-1.608-2.425-2.833-2.992l-.912-.422-2.675.2c-2.74.205-7.992.692-8.056.746-.02.017-.086 6.207-.148 13.755l-.113 13.725 1.525-.1c.839-.056 3.31-.252 5.493-.437zm-2.146-3.865c-.067-.068-.121-1.831-.121-3.918v-3.795l2.389-.093 2.389-.093.533.517c.293.284.73.923.972 1.42.378.777.438 1.104.438 2.374 0 1.318-.048 1.556-.452 2.25-.687 1.18-1.099 1.335-3.759 1.403-1.247.032-2.322 0-2.389-.065zm.807-11.974l-.935-.06.044-3.55.044-3.552 2.208-.046 2.208-.046.748.842c1.76 1.977 1.562 5.175-.38 6.164-.738.376-1.322.413-3.937.247zM107.128 45.2c3.379-.724 5.703-3.137 6.1-6.334.081-.66.131-4.145.11-7.746-.042-7.221-.07-7.457-1.125-9.493-.616-1.19-2.163-2.79-3.281-3.392-1.073-.58-2.492-.982-3.76-1.068-2.832-.193-5.937 1.926-7.498 5.115-1.11 2.267-1.167 2.839-1.036 10.308.123 7.018.189 7.61 1.008 9.131 1.498 2.781 5.641 4.301 9.482 3.479zm-3.467-4.24c-.892-.323-1.557-.868-2.011-1.652l-.412-.71-.034-6.849-.034-6.849.447-.92c1.13-2.326 3.82-2.747 5.762-.903.738.701 1.166 1.6 1.327 2.789.075.55.158 3.576.185 6.727.049 5.687.047 5.734-.321 6.493-.824 1.698-3.046 2.546-4.908 1.874zm29.173 4.11c0-.113-1.057-2.875-2.349-6.137-1.291-3.261-2.348-5.995-2.348-6.076 0-.08.27-.197.6-.26 2.4-.455 3.766-2.828 3.77-6.551.002-3.528-1.465-6.74-3.678-8.05-.83-.492-2.147-.615-8.426-.788l-3.928-.109V44.587l.527.08c.29.045 1.422.093 2.518.108l1.991.027-.023-5.859-.024-5.858 1.36-.047 1.358-.047 1.449 4.711c.797 2.591 1.637 5.3 1.868 6.02l.419 1.31 1.77.047c.973.025 1.879.072 2.012.103.582.137 1.134.083 1.134-.111zm-11.392-15.778c-.06-.06-.108-1.782-.108-3.826v-3.718l1.995-.116c2.21-.129 2.853.019 3.712.85 1.408 1.363 1.329 5.122-.135 6.42l-.562.5h-2.397c-1.318 0-2.445-.05-2.505-.11z" fill="#9F6B08"/><path d="M111.225 252.61c-5.411-3.334-18.906-14.237-27.968-22.598-14.874-13.723-29.79-32.11-39.956-49.254C21.622 144.201 10.36 101.572 9.034 51.056c-.387-14.75-.36-15.216 1.05-18.161 1.868-3.904 3.547-5.052 12.44-8.504 24.553-9.532 50.474-13.942 85.973-14.627 40.08-.774 73.217 4.028 99.888 14.475 9.243 3.62 10.888 4.736 12.765 8.66 1.415 2.954 1.44 3.392 1.044 18.488-2.172 82.957-30.831 144.483-89.309 191.73-7.092 5.73-14.492 10.955-16.336 11.534-.912.286-2.588-.356-5.324-2.041zm-39.3-56.584c1.015-.468 1.759-1.669 2.307-3.724.444-1.668 1.26-3.566 1.814-4.216.61-.717 1.114-2.894 1.28-5.527.241-3.843.56-4.71 2.754-7.519 1.416-1.812 2.932-4.778 3.532-6.911.578-2.055 1.505-4.62 2.06-5.7 4.154-8.083 6.835-12.766 7.309-12.766 1.43 0 2.572 3.104 2.572 6.986 0 3.062.26 4.224 1.039 4.665.927.525.937.79.09 2.488-.52 1.044-1.153 2.765-1.404 3.823-.627 2.634-2.701 5.435-4.863 6.566-.99.518-3.151 2.27-4.803 3.894-2.38 2.34-3 3.397-2.992 5.104.013 2.885.945 4.393 2.034 3.292 1.303-1.318 1.894-.937 1.432.925-.416 1.676-.354 1.722 1.734 1.3 2.68-.543 5.106-2.102 5.55-3.567.184-.61.592-1.55.906-2.09.314-.54 1.513-2.996 2.664-5.458 1.433-3.064 3.005-5.231 4.983-6.871 1.59-1.318 3.314-3.42 3.831-4.674 1.53-3.702 5.979-6.862 5.979-4.246 0 1.535-2.503 6.166-4.334 8.018-2.301 2.327-4.074 5.448-4.077 7.176-.003 1.516.908 1.977 1.616.818.705-1.153 1.508-.7 1.158.655-.285 1.1-.02 1.31 1.656 1.31 3.326 0 6.454-1.895 6.935-4.2.232-1.111.983-2.956 1.67-4.1.817-1.362 1.107-2.65.84-3.73-.438-1.762.75-6.3 1.648-6.3.669 0 3.011 4.88 3.614 7.528.245 1.08 1.018 2.601 1.716 3.38 1.183 1.32 1.7 1.393 7.52 1.063 6.02-.34 6.308-.427 7.867-2.373 1.173-1.465 1.718-3.107 1.983-5.973.467-5.052 2.66-8.49 7.7-12.066l3.769-2.674.928 1.466c.51.806 1.616 3.161 2.456 5.234 1.404 3.464 1.46 4.032.707 7.01-.452 1.78-.628 3.855-.392 4.609.24.763-.078 2.8-.718 4.599l-1.148 3.23 1.531 1.648c1.738 1.871 2.937 2.1 3.48.666.494-1.3 1.708-1.26 1.708.055 0 1.392 1.271.881 2.733-1.099 1.118-1.516 1.129-1.798.17-4.541-.563-1.609-.893-3.433-.733-4.054.159-.62 0-2.388-.353-3.928-.806-3.517-.763-7.638.126-11.97.625-3.044.537-3.704-.923-6.89-.887-1.938-1.492-3.646-1.343-3.796.148-.15 1.374.166 2.723.702 6.275 2.496 11.178 1.927 14.156-1.642l1.764-2.115-3.82-.33c-4.344-.375-4.543-.474-9.127-4.534-3.23-2.862-3.35-3.086-3.003-5.645.205-1.51-.114-4.829-.737-7.66-1.013-4.606-1.019-5.276-.071-8.571.565-1.967 1.027-4.44 1.027-5.498 0-3.164-1.743-8.046-3.794-10.627-1.059-1.333-2.24-3.609-2.626-5.057-.386-1.449-1.416-3.7-2.29-5.002-1.498-2.234-1.535-2.5-.646-4.652.518-1.255.943-3.902.943-5.881 0-3.127-.276-3.917-2.104-6.022-3.966-4.57-5.821-4.985-24.755-5.55-21.856-.654-25.298-1.483-21.904-5.278 1.39-1.553 3.656-1.512 8.374.15 5.153 1.815 11.458 2.266 15.148 1.083 3.17-1.015 3.226-.962-2.265-2.115-.89-.187-1.618-.667-1.618-1.067 0-.49 1.006-.592 3.074-.314 8.462 1.139 9.87 1.222 9.87.584 0-1.063-5.683-3.245-11.613-4.46-9.533-1.953-18.722-.335-23.07 4.064-2.674 2.704-2.98 5.575-.75 7.046 2.803 1.849 7.41 2.415 23.869 2.936 15.05.475 16.856.655 19.471 1.936 3.218 1.575 4.616 3.632 4.53 6.666-.07 2.52-1.738 5.207-3.23 5.206-2.525-.001-10.886-2.121-16.806-4.262-3.474-1.256-6.898-2.282-7.61-2.28-1.607.004-3.495 1.257-9.089 6.034-2.412 2.06-6.706 4.966-9.541 6.458-9.177 4.83-12.01 8.67-13.285 18.012-.691 5.06-1.548 7.084-5.495 12.98-3.277 4.896-5.596 11.475-5.614 15.923-.009 2.147-.767 5.587-2.021 9.165-1.66 4.735-2.033 6.86-2.153 12.273-.124 5.615-.38 6.98-1.794 9.599-1.018 1.885-1.824 4.704-2.106 7.373-.417 3.939-.74 4.656-3.636 8.077-1.747 2.066-3.18 4.113-3.183 4.55-.004.438-.885 1.81-1.96 3.047-2.468 2.844-3.679 6.107-2.65 7.147.546.553.988.373 1.734-.705 1.42-2.05 2.233-1.802 1.586.482-.373 1.314-.307 2.034.207 2.26.974.43 4.655-.147 6.573-1.031zM121.46 58.692c-1.817-1.162-.086-1.466 2.69-.472l2.792.998-2.265.042c-1.246.023-2.694-.233-3.217-.568zm-93.376-.799c5.016-1.85 5.34-2.084 5.34-3.87 0-1.047-.1-1.903-.223-1.903-.122 0-1.915.59-3.984 1.31-2.07.72-3.862 1.309-3.985 1.309-.122 0-.222-5.155-.222-11.456 0-6.301-.102-11.457-.227-11.457s-1.144.324-2.265.72l-2.038.718v13.753c0 12.836.076 13.724 1.132 13.3.623-.25 3.536-1.34 6.472-2.424zm182.668-10.946V33.264l-2.038-.719c-1.12-.395-2.14-.719-2.265-.719s-.227 6.144-.227 13.653v13.653l2.103.683c1.157.375 2.177.712 2.266.749.089.037.161-6.09.161-13.617zm-9.856-3.781l-.175-13.538-1.78-.48-1.78-.482-.01 7.309c-.01 8.375-.076 8.35-3.952-1.53-2.84-7.24-3.764-8.51-6.193-8.51h-1.494v13.42c0 10.295.189 13.422.81 13.429.444.005 1.454.184 2.244.398 1.418.385 1.438.293 1.618-7.583l.182-7.973 3.54 8.931c1.946 4.913 3.984 9.196 4.53 9.519 2.572 1.524 2.642 1.159 2.46-12.91zM39.334 54.343c.226-.133.61-1.86.855-3.84.499-4.042.457-3.99 3.678-4.6l2.344-.445.783 3.303c.768 3.24.823 3.296 2.829 2.91 1.125-.216 2.164-.496 2.31-.62.325-.282-5.813-24.634-6.35-25.19-.212-.22-1.279-.151-2.37.152-1.966.546-2.001.635-4.398 11.201a3137.761 3137.761 0 0 1-3.308 14.457l-.891 3.805 2.054-.446c1.13-.245 2.24-.554 2.464-.687zM42.14 41.06c.214-.682.615-2.523.89-4.091l.502-2.85.853 3.51c.718 2.955.712 3.601-.038 4.082-1.56 1-2.626.686-2.207-.65zm138.843-2.975c0-7.36-.219-13.505-.486-13.657-.266-.151-1.286-.469-2.265-.706l-1.78-.43v27.433l1.78.273c.98.15 1.999.317 2.265.37.267.055.486-5.923.486-13.283zm-122.21 11.74c.631-.244.806-1.523.653-4.767-.115-2.438-.115-5.602 0-7.031.194-2.41.394-2.052 2.728 4.88l2.518 7.479 2.336-8.387 2.335-8.386.184 7.352c.158 6.321.324 7.297 1.185 6.963.552-.214 1.561-.39 2.244-.39 1.184 0 1.241-.63 1.241-13.615V20.306l-2.209.26c-2.164.256-2.243.376-3.919 5.925a610.456 610.456 0 0 1-2.556 8.281l-.847 2.619-2.106-6.874c-1.159-3.78-2.334-7.124-2.613-7.43-.279-.307-1.41-.358-2.513-.113l-2.005.446v13.368c0 12.742.058 13.368 1.241 13.368.683 0 1.63-.15 2.104-.332zm112.353-13.906l-.174-13.584-1.78-.207-1.78-.207v10.576l-2.75-.39c-4.514-.639-4.369-.434-4.369-6.15 0-3.766-.23-5.261-.809-5.268-.445-.004-1.464-.186-2.265-.403l-1.456-.395V47.395l2.265.267 2.265.268v-6.088c0-6.743-.212-6.487 4.692-5.668l2.427.406v6.086c0 5.245.156 6.126 1.133 6.385 2.854.754 2.785 1.102 2.601-13.133zm-81.454 9.428c2.659-1.285 4.164-3.996 4.217-7.592.037-2.519-.273-3.596-1.348-4.684-1.387-1.403-1.388-1.427-.165-3.456 1.486-2.464 1.574-5.048.262-7.616-1.221-2.389-4.344-3.254-9.704-2.69l-3.883.407-.175 13.652L78.7 47.02l4.705-.46c2.588-.253 5.408-.8 6.266-1.213zm-6.414-6.857c0-3.407.17-3.936 1.364-4.252 3.623-.959 6.247 2.67 4.378 6.054-.692 1.254-1.542 1.734-3.335 1.886l-2.407.203v-3.891zm0-11.589v-3.584h2.136c2.588 0 3.689.992 3.689 3.324 0 2.081-.883 2.897-3.722 3.441l-2.103.403V26.9zm65.785 18.343c1.715-1.136 2.808-4.641 2.813-9.018.004-3.443-.051-3.489-4.689-3.94l-3.074-.298v2.211c0 1.922.212 2.21 1.618 2.21 1.306 0 1.618.325 1.618 1.68 0 3.88-3.083 5.606-5.395 3.022-3.173-3.546-2.465-17.052.951-18.15 1.425-.456 3.797 1.26 3.797 2.749 0 .57.8.88 2.265.88 2.57 0 2.858-.87 1.298-3.92-1.368-2.678-3.438-3.936-6.475-3.936-5.556 0-8.07 4.193-8.047 13.42.014 6.101.938 9.953 2.917 12.165 2.287 2.556 7.273 3 10.403.925zm-40.033-.694c.796-.564 2.082-2.258 2.858-3.765 2.03-3.94 2.068-13.831.072-18.24-1.36-3.005-3.999-5.12-6.386-5.12-2.262 0-5.31 2.108-6.722 4.647-3.007 5.413-2.419 17.395 1.06 21.577 1.354 1.627 2.073 1.926 4.637 1.926 1.706 0 3.667-.449 4.481-1.025zm-6.16-4.672c-.836-1.29-1.2-3.376-1.34-7.692-.164-5.069.002-6.236 1.15-8.094 1.675-2.71 3.775-2.627 5.185.207 1.459 2.933 1.346 13.235-.17 15.577-1.464 2.258-3.36 2.26-4.825.002zm18.592-.404c0-5.528.059-5.765 1.385-5.565 1.102.167 1.793 1.378 3.384 5.938l1.998 5.728h4.84l-2.126-6.17-2.125-6.172 1.737-1.658c2.121-2.025 2.783-4.976 1.877-8.377-1.009-3.79-3.545-5.113-9.812-5.116l-4.99-.002-.188 13.476c-.103 7.412-.138 13.525-.079 13.584.06.06 1.006.108 2.103.108h1.996v-5.774zm.485-9.99c-.267-.271-.485-2.103-.485-4.071v-3.578l2.728.37c3.875.526 5.515 3.234 3.58 5.912-.872 1.206-5.023 2.181-5.823 1.368zM.52 47.539c0-.9.147-1.269.327-.818.18.45.18 1.186 0 1.636-.18.45-.327.082-.327-.818zm.092-5.892c0-1.98.121-2.79.27-1.8.148.99.148 2.61 0 3.6-.149.99-.27.18-.27-1.8z" fill="#5C4B21"/><path d="M109.374 249.425c-15.905-11.487-35.757-30.155-46.913-44.118C28.76 163.131 12.8 115.66 10.406 50.484c-.636-17.322.245-19.45 9.721-23.462 24.78-10.493 56.642-15.74 95.49-15.725 29.28.011 49.728 2.3 72.16 8.08 10.165 2.618 24.397 7.616 27.997 9.83 2.688 1.654 4.527 4.717 5.099 8.49.569 3.76-.725 30.28-2.045 41.918-6.821 60.124-28.65 106.654-68.295 145.573-12.733 12.5-32.022 27.908-34.936 27.908-.627 0-3.427-1.652-6.223-3.67zm-37.316-53.254c1.524-.94 2.187-1.93 2.52-3.762.25-1.367.993-3.188 1.654-4.047.877-1.14 1.2-2.665 1.2-5.657 0-3.82.175-4.31 2.608-7.276 1.788-2.18 3.092-4.77 4.148-8.234.847-2.779 2.112-5.872 2.811-6.874.7-1.001 2.186-3.662 3.304-5.912 1.118-2.25 2.285-4.092 2.592-4.092 1.375 0 2.279 2.29 2.144 5.43-.173 4.013.284 5.7 1.545 5.7.817 0 .812.258-.043 1.93-.543 1.063-.988 2.295-.988 2.74 0 2-2.863 6.523-4.96 7.834-1.255.784-2.93 2.048-3.725 2.807a55.716 55.716 0 0 1-2.85 2.52c-1.313 1.063-1.743 2.89-1.427 6.063.188 1.889 1.158 2.71 2.09 1.767 1.221-1.235 1.928-.918 1.165.524-.628 1.186-.493 1.309 1.433 1.307 2.437-.003 6.333-2.158 6.333-3.503 0-.904 4.58-10.128 6.179-12.445.463-.672 1.742-1.775 2.841-2.45 1.1-.677 2.492-2.337 3.096-3.69 1.454-3.259 3.37-5.405 4.823-5.405.65 0 1.182.156 1.182.346 0 1.107-3.98 8.062-4.796 8.379-1.21.47-4.453 6.803-3.926 7.666.508.831 2.25.812 2.25-.025 0-.36.282-.654.627-.654.345 0 .448.471.23 1.048-.568 1.494.857 2.139 3.43 1.552 3.37-.769 5.421-2.388 5.421-4.279 0-.906.624-2.5 1.386-3.544 1.06-1.45 1.296-2.453 1.004-4.272-.374-2.333.543-5.562 1.58-5.562.748 0 2.233 3.094 3.141 6.546 1.268 4.818 1.765 5.095 9.145 5.095 4.902 0 6.663-.233 7.245-.958a65.555 65.555 0 0 1 2.014-2.334c.89-.984 1.275-2.446 1.349-5.125.086-3.129.468-4.261 2.314-6.859 2.766-3.894 8.16-7.822 9.358-6.815.457.383 1.606 2.655 2.553 5.048 1.56 3.942 1.65 4.613.947 7.149-.426 1.539-.62 3.617-.43 4.617.189 1-.067 2.812-.569 4.026-1.288 3.12-1.142 4.493.677 6.333 1.97 1.993 2.824 2.025 3.546.134l.563-1.473.611 1.604.611 1.603 1.718-1.737c1.937-1.96 2.146-3.643.781-6.312-.515-1.007-.769-2.478-.564-3.268.204-.791 0-3.212-.456-5.382-.671-3.2-.672-4.956-.001-9.314.782-5.088.753-5.506-.55-7.966-2.08-3.927-1.837-4.303 1.867-2.88 5.604 2.155 11.496 1.258 13.823-2.103 1.629-2.352 1.357-3.225-.863-2.776-3.437.696-6.179-.319-10-3.701l-3.676-3.254-.332-5.734c-.348-6.02-.366-9.52-.094-19.048.164-5.763.155-5.799-2.399-9.656-1.41-2.129-3.043-5.28-3.63-7.003-.586-1.722-1.712-3.828-2.502-4.68-1.368-1.472-1.388-1.643-.405-3.566 3.087-6.038 1.243-11.996-4.758-15.374l-3.503-1.972-16.56-.52c-21.002-.661-24.962-1.43-23.322-4.53 1.075-2.033 3.371-2.114 8.988-.32 5.697 1.821 11.952 2.213 15.475.971 2.37-.836 2.11-1.9-.464-1.9-.979 0-2.345-.457-3.036-1.016-1.177-.951-1.092-.993 1.332-.666 7.923 1.07 10.679 1.183 10.679.439 0-.422-1.238-1.3-2.75-1.951-9.368-4.031-21.242-4.47-28.037-1.036-3.45 1.743-6.75 5.153-6.75 6.975 0 1.207 3.156 3.719 5.58 4.443 1.38.412 10.082 1.034 19.337 1.384 18.165.686 21.214 1.245 23.615 4.333 1.746 2.245 1.673 5.57-.17 7.737l-1.471 1.73-5.044-1.054c-2.774-.58-7.573-1.97-10.663-3.092-9.692-3.514-9.742-3.506-17.425 2.987-2.597 2.195-7.686 5.629-11.308 7.631-9.215 5.095-11.074 8.03-12.5 19.734-.268 2.191-1.33 4.553-3.679 8.183-4.958 7.66-6.358 11.2-7.007 17.713-.336 3.373-1.374 8.003-2.529 11.284-1.63 4.632-1.96 6.566-1.967 11.538-.008 5.084-.242 6.4-1.576 8.838-.861 1.575-1.751 4.337-1.977 6.137-.695 5.55-.92 6.1-3.851 9.439-1.565 1.782-3.056 3.923-3.314 4.757-.257.834-1.298 2.479-2.313 3.656-2.057 2.386-2.874 4.805-2.207 6.533.388 1.003.648.9 2.07-.817l1.628-1.964-.412 2.455-.412 2.455 2.78-.003c1.612-.001 3.648-.538 4.848-1.278zm49.68-137.548c-.672-1.099-.145-1.155 2.292-.246l2.265.845-2.065.05c-1.136.027-2.258-.265-2.492-.649zm-99.087 56.18c-3.029-15.717-5.024-33.55-6.024-53.845-1.053-21.348-1.077-21.594-2.287-23.462-.62-.958-1.386-1.742-1.7-1.742-1.875 0 .57 37.136 3.705 56.3 1.797 10.987 5.832 27.495 6.72 27.495.275 0 .089-2.136-.414-4.746zM34.069 53.92c.001-1.35-.098-2.455-.22-2.455-.123 0-1.918.59-3.99 1.31-2.072.722-3.917 1.16-4.1.975-.183-.185-.464-5.194-.625-11.13-.16-5.937-.526-10.795-.813-10.795-.286 0-1.268.288-2.181.639l-1.66.638v28.122l6.794-2.425 6.794-2.424.001-2.455zM210.28 33.064c-.274-.27-1.3-.69-2.278-.935l-1.78-.445v27.634l2.103.868 2.104.869.175-13.75c.096-7.562-.05-13.97-.324-14.24zm-8.588 10.585c0-7.54-.219-13.84-.486-13.998-.267-.16-1.46-.5-2.651-.76l-2.166-.47.224 6.613c.124 3.637.08 6.611-.099 6.609-.178-.003-1.565-3.17-3.082-7.039-3.377-8.612-3.24-8.401-5.816-8.967l-2.104-.461v13.76c0 7.57.219 13.886.486 14.037.267.152 1.286.47 2.265.706l1.78.43v-7.672c0-4.22.242-7.392.54-7.05.296.343 1.948 4.26 3.67 8.705 3.048 7.867 3.923 9.085 6.63 9.224.623.032.809-3.115.809-13.667zM37.836 55.337c1.8-.634 2.096-1.12 2.756-4.515.677-3.479.907-3.838 2.691-4.199 2.924-.591 2.94-.582 3.383 2.074.636 3.81 1.014 4.148 3.775 3.377 1.319-.368 2.398-.826 2.398-1.017 0-.192-1.125-4.523-2.5-9.626-1.377-5.102-2.89-10.834-3.365-12.738-.845-3.387-.905-3.451-2.838-3.04-1.087.23-2.185.615-2.442.855-.469.438-6.964 27.195-6.972 28.722-.005 1.002.523 1.02 3.114.107zm4.9-15.124c.217-1.102.395-2.468.395-3.035 0-1.653 1.08-.02 1.503 2.272.314 1.705.15 2.12-.958 2.413-1.191.315-1.294.136-.94-1.65zm177.02 2.415c.04-4.718-.404-7.528-1.19-7.528-.246 0-.97.387-1.61.86-1.115.824-1.118 1.166-.064 8.02.605 3.937 1.267 7.6 1.47 8.14.533 1.418 1.348-4.134 1.394-9.492zm-38.774-4.5V24.133l-2.045-.413c-1.125-.228-2.104-.338-2.176-.246-.072.093-.323 6.25-.557 13.684l-.427 13.515 2.44.656c1.343.36 2.514.686 2.603.723.09.037.162-6.23.162-13.926zm-122.48 12.27c1.377-.373 1.46-.74 1.518-6.7l.062-6.307 2.103 6.39c1.157 3.515 2.26 6.55 2.453 6.745.193.195.94-1.65 1.661-4.099l2.272-7.727.96-3.273.068 6.607.067 6.607 2.427-.403 2.427-.402-.243-13.733c-.134-7.553-.32-13.823-.414-13.934-.095-.11-1.14.053-2.324.363-2.1.55-2.208.755-4.41 8.308l-2.258 7.744-2.352-7.125c-2.32-7.033-2.375-7.122-4.236-6.905-1.036.121-2.086.416-2.333.655-.247.239-.538 6.547-.647 14.019-.215 14.676-.347 14.132 3.199 13.17zm113.42-13.95c0-7.54-.22-13.844-.486-14.01-.267-.165-1.36-.403-2.427-.53l-1.942-.229-.189 5.074c-.187 5.035-.202 5.073-1.941 5.064-4.37-.022-4.598-.313-4.802-6.116l-.187-5.33-2.103-.206-2.103-.205v13.719c0 14.673-.036 14.514 3.264 14.514 1.09 0 1.237-.632 1.403-6.055l.187-6.055 2.588.227c1.424.124 2.807.362 3.074.528.267.167.486 3.065.486 6.442v6.139l2.103.264c1.157.145 2.322.311 2.589.369.267.057.485-6.065.485-13.604zm-82.37 9.407c4.238-1.739 6.05-8.192 3.493-12.434-1.044-1.732-1.088-2.174-.321-3.235 1.214-1.68 1.126-6.89-.148-8.73-1.564-2.258-3.888-2.858-9.146-2.36l-4.703.446v28.032l4.368-.43c2.403-.237 5.309-.817 6.458-1.289zm-6.033-4.461c-.189-.5-.253-2.193-.141-3.765.183-2.586.375-2.877 2.021-3.068 2.541-.294 3.683.917 3.683 3.908 0 2.14-.27 2.658-1.66 3.193-2.294.882-3.498.8-3.903-.268zm-.262-14.406c0-2.496.207-2.928 1.566-3.273 2.184-.555 3.554.125 4.017 1.99.521 2.101-1.33 4.157-3.742 4.157-1.744 0-1.841-.151-1.841-2.874zm64.98 19.15c2.343-1.08 3.622-4.345 3.622-9.248v-4.231l-3.003-.416c-4.715-.654-4.764-.635-4.764 1.875 0 1.854.247 2.29 1.295 2.29 1.88 0 1.902 4.955.024 5.558-3.288 1.055-5.192-2.606-5.198-9.997-.005-5.493 1.302-8.653 3.579-8.653 1.31 0 1.881.466 2.456 2.007.692 1.853.923 1.974 3.018 1.578 1.248-.236 2.359-.518 2.469-.627.11-.109-.22-1.211-.73-2.45-2.841-6.876-11.229-7.397-14.081-.875-1.721 3.936-2.242 10.24-1.246 15.092 1.09 5.314 4.406 8.842 8.308 8.842 1.449 0 3.362-.335 4.251-.745zm-39.364-1.144c2.887-1.78 4.34-5.385 4.67-11.59.534-9.994-2.611-15.98-8.396-15.98-2.085 0-3.031.432-4.746 2.167-2.856 2.89-3.747 6.564-3.443 14.212.198 4.993.531 6.697 1.675 8.569 2.372 3.883 6.488 4.936 10.24 2.622zm-5.166-4.36c-3.32-3.357-2.734-16.922.79-18.29 4.12-1.599 6.071 13.87 2.284 18.103-1.308 1.461-1.786 1.49-3.074.188zm29.383 5.063c0-.293-.869-3.132-1.93-6.31l-1.931-5.776 2.002-2.307c1.82-2.097 1.976-2.625 1.715-5.807-.483-5.895-3.702-8.062-11.99-8.07l-4.045-.003v28.15h5.177v-5.892c0-7.855 1.08-7.865 3.87-.037 1.836 5.15 2.293 5.887 3.8 6.121 3.06.476 3.332.47 3.332-.07zm-11.002-19.92V22.27l2.242.264c2.823.334 3.726 1.422 3.465 4.176-.194 2.047-.363 2.182-2.956 2.372l-2.751.201v-3.507zM17.864 31.662c.048-.865-2.225-.526-3.76.561l-1.485 1.053 1.476 1.588 1.475 1.589 1.133-2.15c.624-1.183 1.146-2.371 1.161-2.641z" fill="#282928"/><path d="M105.888 246.302c-45.5-34.618-73.64-77.125-86.687-130.944-5.248-21.646-8.429-48.383-8.429-70.84 0-12.255.868-13.604 11.495-17.874 34.144-13.72 84.819-18.552 134.122-12.79 24.954 2.917 56.527 12.037 61.498 17.763 2.018 2.325 2.487 3.646 1.117 3.146-.445-.162-1.477.226-2.293.863-1.48 1.155-1.48 1.172-.543 6.698.517 3.048 1.146 8.708 1.399 12.579.252 3.87.677 7.037.944 7.037.859 0 1.284-4.656 1.436-15.711l.149-10.802.226 8.838c.425 16.598-1.998 41.276-6.015 61.249-7.491 37.255-22.045 69.451-44.073 97.502-13.895 17.693-49.026 49.426-54.72 49.426-.96 0-4.652-2.356-9.626-6.14zm15.614.813c8.444-5.517 16.7-12.534 26.228-22.292 13.065-13.381 20.633-22.31 23.25-27.43.8-1.565.763-1.866-.365-2.898-1.222-1.118-1.519-.892-10.17 7.746-10.815 10.8-18.294 16.905-18.294 14.932 0-1.169-8.379-5.971-13.38-7.67-8.932-3.032-18.63-2.756-26.552.758l-3.367 1.493-1.077-3.715c-3.043-10.49-4.752-24.427-3.128-25.5.392-.26 1.523-2.31 2.513-4.558 1.287-2.919 2.764-4.918 5.17-6.997 2.037-1.76 3.604-3.741 3.964-5.012.613-2.16 3.477-4.868 4.697-4.44 1.054.37-1.268 5.05-4.214 8.493-1.414 1.653-2.96 3.953-3.434 5.112-.75 1.83-.726 2.245.18 3.162.96.97 1.082.954 1.523-.207.435-1.146.514-1.112.86.375.496 2.142 2.423 2.39 6.03.776 2.515-1.125 2.89-1.573 3.256-3.885.227-1.437.874-3 1.437-3.473.69-.579.972-1.732.862-3.522-.172-2.79.545-6.262 1.292-6.262.78 0 2.527 3.536 2.995 6.06.251 1.354 1.027 3.195 1.724 4.092 1.206 1.55 1.601 1.631 7.94 1.631h6.672l1.841-2.442c1.429-1.894 1.865-3.21 1.944-5.868.138-4.646 2.5-8.578 7.198-11.98l3.69-2.673 1.052 1.412c.578.776 1.67 3.15 2.427 5.276 1.073 3.017 1.23 4.25.717 5.616-.362.963-.768 3.534-.902 5.714-.135 2.18-.438 5.025-.675 6.323-.376 2.055-.203 2.541 1.334 3.764 2.228 1.773 2.784 1.762 3.512-.068.424-1.067.596-1.168.626-.366.07 1.87 1.351 2.052 3.054.434 1.382-1.312 1.565-1.93 1.235-4.16a536.64 536.64 0 0 1-.945-6.873c-.307-2.34-.774-4.782-1.038-5.426-.264-.643-.112-3.885.339-7.205.781-5.754.754-6.164-.569-8.787-1.898-3.763-1.773-4.348.659-3.077 2.806 1.468 9.056 1.97 11.544.928 2.113-.886 4.53-3.537 4.53-4.968 0-.643-.782-.772-3.074-.505-2.551.296-3.42.096-5.114-1.177a786.744 786.744 0 0 0-4.704-3.498c-2.534-1.868-2.646-2.095-2.301-4.66.206-1.532-.1-4.75-.707-7.45-.587-2.614-.894-5.672-.68-6.796.212-1.123.675-3.456 1.027-5.184.885-4.338-.171-8.776-3.188-13.398-1.348-2.065-2.82-4.933-3.27-6.373-.451-1.44-1.384-3.432-2.074-4.426-1.206-1.74-1.212-1.935-.158-5.146 2.079-6.33-.064-11.48-5.995-14.404-2.88-1.42-4.172-1.556-18.948-1.989-14.204-.417-21.592-1.118-23.348-2.216-1.204-.752-.575-2.953 1.058-3.706 1.39-.64 2.557-.46 7.28 1.13 6.021 2.026 12.356 2.443 15.858 1.045 2.328-.93 1.806-1.756-1.443-2.281-1.412-.228-2.746-.71-2.965-1.068-.55-.901.828-.82 5.782.342 4.004.94 7.486.786 7.486-.33 0-.72-5.466-2.993-10.125-4.21-5.26-1.373-14.652-1.352-18.921.043-3.93 1.284-8.174 4.754-8.774 7.175-.543 2.189 1.27 4.298 4.667 5.432 1.364.455 10.286 1.165 20.533 1.634 19.256.88 21.014 1.217 23.26 4.46 1.477 2.133 1.263 5.379-.49 7.44-1.47 1.73-1.572 1.749-5.016.978-1.934-.433-7.313-2.037-11.954-3.564-6.54-2.151-8.868-2.655-10.355-2.241-1.054.294-4.101 2.443-6.77 4.775-2.688 2.348-7.681 5.749-11.187 7.617-8.92 4.755-11.656 8.453-12.759 17.252-.62 4.949-1.696 7.505-6.195 14.721-3.072 4.927-4.808 9.916-4.808 13.822 0 2.012-.877 5.936-2.265 10.132-1.911 5.779-2.265 7.757-2.265 12.67 0 4.925-.249 6.31-1.616 8.991-.889 1.744-1.781 4.643-1.983 6.443-.606 5.396-.752 5.74-4.14 9.792-1.795 2.145-3.263 4.428-3.263 5.073 0 .646-.28 1.174-.624 1.174-1.084 0-3.906 4.811-3.906 6.66 0 2.472 1.24 2.995 2.672 1.127l1.2-1.568-.399 2.128c-.347 1.849-.223 2.128.949 2.128.93 0 1.892.963 3.103 3.11 6.85 12.13 21.962 29.95 33.247 39.2 5.697 4.668 13.512 10.061 14.582 10.061.413 0 2.615-1.218 4.895-2.708zm-44.09-60.41c.354-.943.611-3.165.572-4.938-.06-2.653.271-3.667 1.865-5.718 2.464-3.17 3.72-5.67 4.697-9.344.835-3.139 7.583-16.388 8.346-16.388 1.35 0 2.014 1.975 2.014 5.99 0 3.312.252 4.562 1.004 4.988 1.646.932-.705 7.602-3.725 10.565-3.917 3.843-5.893 5.56-7.776 6.755-1.282.814-1.895 1.865-2.195 3.764-.23 1.449-.649 2.634-.932 2.634-.283 0-1.414.766-2.514 1.703l-2 1.702.644-1.713zm44.676-128.038c-.801-.524-.745-.628.324-.599.712.02 1.876.29 2.588.599 1.186.515 1.159.565-.323.598-.89.02-2.055-.25-2.589-.598zm-91.66 83.303c-1.211-3.87-3.498-12.34-5.082-18.82-5.425-22.206-7.242-37.17-9.11-75.05-.318-6.439-.68-8.726-1.632-10.31-1.44-2.395-2.52-2.63-2.583-.563-.826 26.875 3.553 61.063 11.018 86.015 3.242 10.834 8.536 25.766 9.136 25.766.25 0-.536-3.167-1.747-7.038zm20.146-38.442c12.591-3.353 24.34-13.159 29.83-24.894.674-1.44 1.248-2.766 1.276-2.946.029-.18.602-2.095 1.275-4.256.906-2.912 1.229-5.96 1.248-11.783.028-8.81-.445-11.419-2.091-11.536-.616-.044.547-.327 2.584-.63 7.025-1.04 9.563-3.605 9.563-9.66 0-2.215-.391-3.72-1.242-4.778-1.164-1.448-1.174-1.623-.162-2.76.704-.791 1.08-2.35 1.08-4.473 0-2.853-.263-3.496-2.113-5.168-2.229-2.014-5.12-2.418-10.668-1.49l-2.427.405v8.699c0 4.784-.177 9.164-.393 9.734-.216.57-1.09 1.035-1.942 1.035h-1.549v-9.492c0-9.41-.012-9.492-1.456-9.483-3.772.023-4.048.387-6.331 8.346l-2.182 7.606-2.275-7.002-2.275-7.001-2.286.416c-1.258.229-2.505.542-2.772.696-.267.154-.485 4.355-.485 9.336v9.055l-1.712.435c-.941.239-1.918.197-2.17-.093-.253-.29-1.362-4.024-2.464-8.297-1.103-4.274-2.136-7.901-2.294-8.062-.159-.16-1.32-.096-2.579.143l-2.29.435-1.702 7.3c-3.078 13.202-2.477 11.976-6.316 12.883-1.865.441-4.336 1.191-5.493 1.667l-2.104.865v-8.874c0-7.85-.119-8.828-1.03-8.474-.567.22-1.747.582-2.623.804l-1.59.404.248 14.814c.274 16.34 1.103 22.256 5.25 37.474 3.167 11.62 6.022 18.857 7.738 19.613 1.931.852 12.239.235 16.924-1.013zm-7.835-62.917c.216-.57.392-1.66.392-2.423 0-1.788.992-.726 1.547 1.658.357 1.532.215 1.8-.956 1.8-.99 0-1.266-.291-.983-1.035zm41.165-2.162c0-2.726.206-3.251 1.4-3.567 2.248-.595 3.778.642 3.778 3.056 0 2.62-.988 3.708-3.366 3.708-1.737 0-1.812-.132-1.812-3.197zM60.39 40.555c-.238-.24-.423-.903-.412-1.473.016-.851.142-.823.706.158.697 1.212.495 2.114-.294 1.315zm8.731-2.182c0-.9.147-1.269.326-.818.18.45.18 1.186 0 1.636-.18.45-.326.082-.326-.818zm14.783-11.456c0-2.93.012-2.946 2.265-2.946 2.274 0 2.638.519 2.297 3.273-.157 1.272-1.9 2.618-3.391 2.618-.956 0-1.17-.54-1.17-2.945zM208.774 86.2c1.819-4.582 4.581-21.212 4.545-27.366-.013-2.344-.494-4.758-1.272-6.387-1.036-2.17-1.254-4.09-1.273-11.183l-.022-8.564-2.245-.697-2.246-.698-.181 7.952c-.172 7.53-.25 7.942-1.476 7.758-2.918-.44-2.912-.42-2.912-9.195v-8.45l-2.023-.409c-1.112-.225-2.277-.409-2.588-.409-.312 0-.578 2.872-.592 6.383l-.025 6.383-2.948-7.201c-1.622-3.961-3.14-7.391-3.373-7.623-.233-.233-1.37-.624-2.527-.87l-2.104-.45v8.563c0 8.499-.01 8.563-1.488 8.563-2.712 0-3.042-1.07-3.042-9.875 0-8.057-.043-8.314-1.456-8.697-3.789-1.027-3.722-1.182-3.722 8.501v8.914l-1.456-.395c-.8-.217-1.674-.398-1.941-.403-.267-.005-.486-4.097-.486-9.092V22.17l-2.022-.409c-1.112-.225-2.277-.409-2.589-.409-.311 0-.566 2.357-.566 5.237 0 5.65.035 5.605-3.777 4.833l-1.998-.404-.187-5.324-.186-5.324-2.427-.203-2.427-.203v28.085l2.285.27c1.256.149 2.421.132 2.588-.037.167-.17.304-2.91.304-6.09 0-6.25-.066-6.157 3.802-5.374l2.023.41.04 4.99c.046 5.545.947 18.015 1.45 20.05 2.503 10.14 10.54 19.514 19.955 23.278 4.987 1.994 7.913 2.486 14.284 2.404 5.412-.07 5.662-.14 6.301-1.749zM191.05 43.446c-.676-2.252-.833-3.732-.364-3.439.87.545 1.956 4.258 1.244 4.258-.349 0-.744-.369-.88-.819zm-41.947 2.411c2.083-1.38 2.756-3.519 2.756-8.76 0-4.974-.273-5.243-5.34-5.262-2.401-.009-2.427.019-2.427 2.61 0 2.182.216 2.619 1.295 2.619.994 0 1.294.436 1.294 1.883 0 2.757-1.505 3.793-3.546 2.44-2.043-1.353-2.602-3.415-2.602-9.59 0-7.494 2.879-10.978 5.37-6.497.942 1.695 1.43 1.957 3.367 1.8 2.033-.165 2.252-.369 2.142-1.991-.29-4.259-5.38-7.829-9.625-6.751-2.542.645-5.18 3.794-6.026 7.193-1.582 6.353-.398 15.156 2.546 18.943 2.336 3.004 7.363 3.64 10.796 1.363zm-39.432-1.263c2.716-2.312 4.097-6.294 4.197-12.1.164-9.59-2.848-15.07-8.283-15.07-5.73 0-9.05 5.402-9.05 14.73 0 6.067 1.468 10.735 4.01 12.758 2.416 1.922 6.668 1.774 9.126-.318zm-6.434-4.683c-.583-.71-.951-3.241-1.071-7.365-.203-6.948.547-9.418 2.963-9.768 2.374-.345 3.571 3.515 3.243 10.453-.276 5.851-1.042 7.76-3.11 7.76-.626 0-1.536-.486-2.025-1.08zm18.714.262c.25-7.655 1.306-7.612 4.055.164l2.084 5.892h2.824c1.553 0 2.813-.074 2.801-.164-.012-.09-.98-2.918-2.15-6.285l-2.129-6.12 1.827-1.849c1.52-1.538 1.827-2.4 1.827-5.14 0-6.787-2.228-8.72-10.517-9.128l-5.662-.279v14.1c0 15.024-.024 14.918 3.235 14.663 1.578-.123 1.623-.27 1.805-5.854zm.137-14.238c0-3.267.005-3.274 2.136-3.274 2.572 0 3.689.991 3.689 3.274 0 2.282-1.117 3.273-3.69 3.273-2.13 0-2.135-.007-2.135-3.273zM16.597 35.54c0-.435.738-1.89 1.641-3.234 1.316-1.958 1.439-2.444.622-2.444-1.122 0-6.146 2.442-6.146 2.986 0 .187.628 1.201 1.397 2.252 1.356 1.855 2.486 2.055 2.486.44zm37.677-15.147c27.095-4.42 53.945-5.807 82.376-4.254 11.616.634 31.317 2.57 39.154 3.847 3.4.553 4.506.468 3.756-.29-.554-.561-15.747-3.422-23.818-4.486-15.14-1.994-27.124-2.532-48.826-2.189-22.587.358-32.128 1.193-46.958 4.111-10.985 2.162-20.24 4.875-16.632 4.875.582 0 5.508-.726 10.948-1.614z" fill="#040404"/></g></symbol></svg>