<?xml version="1.0" standalone="no"?>
<!DOCTYPE svg PUBLIC "-//W3C//DTD SVG 20010904//EN"
 "http://www.w3.org/TR/2001/REC-SVG-20010904/DTD/svg10.dtd">
<svg version="1.0" xmlns="http://www.w3.org/2000/svg"
 width="263.000000pt" height="263.000000pt" viewBox="0 0 263.000000 263.000000"
 preserveAspectRatio="xMidYMid meet">
<metadata>
Created by potrace 1.11, written by Peter Selinger 2001-2013
</metadata>
<g transform="translate(0.000000,263.000000) scale(0.100000,-0.100000)"
fill="#000000" stroke="none">
<path d="M1035 2614 c-16 -2 -73 -9 -125 -15 -208 -23 -519 -98 -621 -149 -56
-29 -105 -90 -119 -150 -15 -62 -8 -300 15 -495 82 -700 382 -1246 924 -1681
126 -101 178 -129 225 -120 95 18 422 303 597 521 260 323 436 746 504 1208
20 135 39 466 30 532 -13 108 -74 167 -232 225 -152 55 -364 97 -608 120 -101
9 -519 12 -590 4z m725 -49 c380 -59 645 -156 670 -245 19 -69 7 -398 -20
-555 -7 -43 -8 -38 -4 30 l4 80 -20 -45 -19 -45 7 135 c4 74 7 190 7 257 l0
123 -31 30 c-18 18 -74 49 -138 75 -121 50 -327 93 -575 120 -79 8 -147 17
-151 20 -7 4 -464 -12 -550 -19 -75 -7 -303 -55 -407 -86 -55 -16 -108 -28
-119 -28 -10 1 -30 -2 -44 -7 -23 -7 -24 -6 -10 10 13 16 12 16 -24 1 -20 -8
-51 -25 -67 -37 -26 -18 -29 -25 -23 -55 5 -29 4 -34 -14 -34 -27 0 -32 -18
-32 -108 0 -69 1 -74 15 -56 13 18 14 16 15 -28 0 -26 5 -50 10 -53 6 -3 10
-34 10 -68 0 -81 25 -279 49 -398 32 -152 71 -312 80 -324 4 -5 25 -50 46
-100 20 -49 64 -143 96 -208 32 -66 59 -124 59 -129 0 -6 15 -29 34 -52 18
-23 67 -86 108 -141 73 -97 317 -365 342 -375 6 -3 21 -13 31 -23 47 -44 204
-147 223 -147 24 0 186 119 285 210 37 34 70 61 72 59 2 -2 -10 -23 -26 -47
-15 -23 -25 -42 -20 -42 4 0 57 51 117 112 110 113 208 233 279 340 40 61 62
82 26 26 -86 -137 -162 -230 -311 -379 -165 -165 -297 -277 -378 -319 l-42
-22 -53 26 c-110 54 -383 300 -526 474 -270 330 -440 725 -511 1188 -33 222
-49 526 -31 609 14 64 150 133 379 191 122 30 335 66 462 78 114 10 619 -3
720 -19z m-513 -130 c46 -32 53 -177 11 -230 -19 -25 -60 -33 -84 -17 -53 35
-54 193 -2 242 26 24 46 25 75 5z m163 11 c0 -2 -16 -6 -35 -8 -19 -2 -35 0
-35 4 0 4 16 8 35 8 19 0 35 -2 35 -4z m51 -23 c13 -17 13 -17 -6 -3 -11 8
-22 16 -24 17 -2 2 0 3 6 3 6 0 17 -8 24 -17z m131 7 c-37 -9 -35 -7 -50 -35
-6 -11 -12 -14 -12 -7 0 22 39 52 68 51 26 -1 25 -1 -6 -9z m-516 -26 c15 -22
16 -31 5 -61 -10 -25 -10 -38 -2 -46 17 -17 13 -72 -6 -95 -12 -13 -36 -23
-70 -27 l-53 -7 0 131 0 131 55 0 c48 0 57 -3 71 -26z m-176 -37 c0 -109 -12
-207 -26 -207 -9 0 -14 21 -16 73 l-3 72 -23 -72 c-13 -40 -25 -73 -27 -73 -2
0 -11 24 -20 53 -26 79 -35 79 -35 -1 0 -58 -3 -72 -15 -72 -24 0 -18 253 6
258 12 2 21 -16 38 -73 12 -42 26 -73 31 -70 6 3 10 11 10 17 0 6 9 42 20 79
17 55 25 69 40 69 17 0 20 -7 20 -53z m461 -72 c4 11 7 -8 8 -42 1 -50 -2 -63
-14 -63 -13 0 -15 19 -13 118 1 108 2 111 7 42 4 -43 9 -66 12 -55z m371 43
c-5 -150 -8 -165 -10 -40 -1 67 1 122 6 122 4 0 6 -37 4 -82z m-334 -11 c24
-4 24 -4 -5 -6 l-33 -1 2 48 1 47 4 -42 c4 -36 7 -42 31 -46z m-757 -63 c15
-54 28 -109 28 -121 1 -35 -27 -28 -37 10 -7 24 -13 31 -28 29 -29 -6 -43 -21
-50 -57 -3 -20 -13 -35 -23 -38 -14 -3 -17 1 -13 19 2 13 8 21 13 18 5 -3 6 2
3 10 -3 8 2 50 12 92 14 56 20 71 26 57 6 -12 7 -7 3 15 -5 37 10 75 28 69 6
-2 24 -48 38 -103z m1391 24 c-4 -143 -9 -157 -10 -35 -1 64 1 117 6 117 4 0
6 -37 4 -82z m-591 49 c-10 -9 -11 -8 -5 6 3 10 9 15 12 12 3 -3 0 -11 -7 -18z
m86 -59 c-2 -18 -4 -6 -4 27 0 33 2 48 4 33 2 -15 2 -42 0 -60z m280 26 c-3
-3 -12 -4 -19 -1 -8 3 -5 6 6 6 11 1 17 -2 13 -5z m-1414 -12 c-8 -5 -13 -47
-16 -127 l-3 -120 -2 128 c-2 115 0 127 16 127 12 0 13 -3 5 -8z m1277 -2 c0
-5 -7 -7 -15 -4 -8 4 -15 8 -15 10 0 2 7 4 15 4 8 0 15 -4 15 -10z m-115 -90
l20 -25 -22 19 c-13 11 -23 24 -23 29 0 6 1 8 3 6 1 -2 11 -15 22 -29z m39 1
c-2 -3 -12 3 -22 13 -16 17 -16 18 5 5 12 -7 20 -15 17 -18z m41 10 c-3 -6
-11 -11 -16 -11 -5 0 -4 6 3 14 14 16 24 13 13 -3z m-170 -29 c-3 -3 -11 0
-18 7 -9 10 -8 11 6 5 10 -3 15 -9 12 -12z m-1016 -91 c36 13 52 5 31 -14 -10
-10 -11 -9 -5 2 6 10 2 11 -16 6 -38 -12 -52 -11 -56 5 -3 11 -2 12 4 2 7 -9
17 -10 42 -1z m897 -6 c-15 -8 -44 -15 -64 -15 -36 0 -72 -23 -72 -46 0 -7 12
-20 28 -28 17 -10 21 -15 11 -16 -9 0 -27 8 -39 18 -20 16 -21 21 -11 41 16
30 85 61 136 61 l40 0 -29 -15z m336 -152 c32 -30 37 -77 13 -109 -13 -17 -14
-15 -9 26 5 40 3 50 -21 78 -33 39 -22 42 17 5z m-185 -98 c48 -19 93 -35 101
-35 9 0 12 -6 8 -16 -4 -9 0 -24 7 -33 14 -15 37 -75 37 -92 0 -5 -9 -9 -20
-9 -12 0 -31 17 -49 43 -55 79 -72 97 -92 97 -24 0 -24 -1 6 -60 14 -27 36
-88 50 -137 14 -48 32 -105 41 -127 20 -52 12 -55 -20 -6 -14 22 -34 40 -44
40 -14 0 -14 2 -3 9 22 14 7 76 -32 135 -18 28 -39 70 -46 94 -15 55 -64 83
-108 64 -23 -10 -19 -5 17 27 25 22 48 41 53 41 4 0 46 -16 94 -35z m-205 -57
c-22 -22 -13 -44 26 -66 47 -26 70 -82 47 -115 -18 -25 -3 -47 31 -47 28 0 70
-40 66 -63 -2 -9 1 -17 5 -17 5 0 18 -7 29 -16 18 -15 18 -15 -3 -9 -14 4 -23
2 -23 -5 0 -7 10 -14 22 -18 18 -4 14 -8 -23 -18 -24 -8 -59 -14 -76 -14 -42
0 -42 -12 2 -84 19 -32 35 -63 35 -69 0 -21 -34 -47 -62 -47 -16 0 -31 -6 -34
-15 -4 -8 -10 -12 -15 -9 -19 11 -8 54 26 93 36 44 38 77 4 68 -15 -4 -19 0
-19 19 0 15 -6 24 -15 24 -8 0 -15 -7 -15 -15 0 -8 -17 -22 -37 -31 -30 -12
-45 -13 -74 -5 -52 16 -55 15 -78 -24 -24 -41 -41 -45 -41 -10 0 27 -9 32 -27
14 -19 -19 -43 -2 -43 31 0 31 14 58 61 120 17 23 32 62 43 113 22 109 35 129
118 180 79 49 88 53 70 35z m1093 -180 c-24 -120 -70 -291 -106 -394 -34 -97
-100 -247 -106 -241 -2 2 13 39 33 83 71 156 156 448 181 620 4 27 9 41 11 32
2 -10 -4 -55 -13 -100z m-641 27 c8 -31 -2 -54 -15 -34 -11 18 -11 59 0 59 5
0 12 -11 15 -25z m-22 -177 c-9 -9 -12 -4 -11 23 0 32 1 33 11 11 8 -17 8 -26
0 -34z m-162 -42 c0 -9 -30 -14 -35 -6 -4 6 3 10 14 10 12 0 21 -2 21 -4z
m-52 -42 c-22 -12 -28 -22 -28 -49 0 -41 25 -61 91 -74 l44 -9 -48 -1 c-62 -1
-105 21 -123 65 -22 54 -1 82 61 83 l30 0 -27 -15z m59 -9 c9 -24 -1 -27 -15
-5 -8 13 -8 20 -2 20 6 0 13 -7 17 -15z m180 -71 c-3 -4 -14 -3 -24 0 -15 6
-15 8 -3 16 16 10 39 -4 27 -16z m-760 -96 c-3 -7 -5 -2 -5 12 0 14 2 19 5 13
2 -7 2 -19 0 -25z m513 -62 c0 -3 -7 -6 -15 -6 -9 0 -15 9 -15 21 0 18 2 19
15 5 8 -8 15 -17 15 -20z m-93 -116 l21 -25 -20 -25 -21 -25 6 30 c3 17 -1 42
-10 60 -8 16 -11 26 -6 20 4 -5 18 -21 30 -35z m-467 -45 c0 -8 -4 -15 -10
-15 -5 0 -7 7 -4 15 4 8 8 15 10 15 2 0 4 -7 4 -15z m1190 -95 c-11 -22 -23
-40 -25 -40 -3 0 4 18 15 40 11 22 23 40 25 40 3 0 -4 -18 -15 -40z m-1010 15
c-13 -16 -40 -20 -40 -7 0 14 12 22 33 22 16 0 17 -3 7 -15z m970 -85 c-6 -11
-13 -20 -16 -20 -2 0 0 9 6 20 6 11 13 20 16 20 2 0 0 -9 -6 -20z"/>
<path d="M1182 2398 c-7 -7 -12 -43 -12 -90 0 -67 3 -79 20 -88 14 -8 26 -8
40 0 17 9 20 21 20 88 0 79 -9 102 -40 102 -9 0 -21 -5 -28 -12z"/>
<path d="M986 2394 c-9 -23 -7 -62 3 -68 19 -12 61 13 61 37 0 42 -50 66 -64
31z"/>
<path d="M980 2251 c0 -45 9 -54 44 -45 28 7 41 33 31 64 -5 15 -15 20 -41 20
-33 0 -34 -1 -34 -39z"/>
<path d="M586 2278 c-8 -32 -8 -78 2 -78 23 1 30 17 22 54 -10 47 -16 53 -24
24z"/>
<path d="M1410 1837 c0 -19 21 -37 42 -37 21 0 22 4 8 31 -12 21 -50 26 -50 6z"/>
<path d="M1125 1600 c-4 -7 -35 -162 -35 -177 0 -2 12 3 27 10 21 9 27 9 31
-1 8 -26 35 -42 68 -42 19 0 34 1 34 3 0 2 -11 18 -25 37 -14 19 -25 41 -25
51 0 24 -48 129 -59 129 -6 0 -13 -4 -16 -10z"/>
<path d="M1085 1329 c-8 -23 -1 -34 14 -24 13 8 15 45 2 45 -5 0 -13 -9 -16
-21z"/>
</g>
</svg>
